<?xml version="1.0" encoding="UTF-8" standalone="no"?>
<svg
   width="20"
   height="20"
   viewBox="0 0 20 20"
   fill="currentColor"
   version="1.1"
   id="svg121"
   sodipodi:docname="calendar.svg"
   inkscape:version="1.2 (dc2aeda, 2022-05-15)"
   xmlns:inkscape="http://www.inkscape.org/namespaces/inkscape"
   xmlns:sodipodi="http://sodipodi.sourceforge.net/DTD/sodipodi-0.dtd"
   xmlns="http://www.w3.org/2000/svg"
   xmlns:svg="http://www.w3.org/2000/svg">
  <defs
     id="defs125" />
  <sodipodi:namedview
     id="namedview123"
     pagecolor="#ffffff"
     bordercolor="#666666"
     borderopacity="1.0"
     inkscape:showpageshadow="2"
     inkscape:pageopacity="0.0"
     inkscape:pagecheckerboard="0"
     inkscape:deskcolor="#d1d1d1"
     showgrid="false"
     inkscape:zoom="51.375"
     inkscape:cx="8"
     inkscape:cy="8"
     inkscape:window-width="1920"
     inkscape:window-height="972"
     inkscape:window-x="0"
     inkscape:window-y="25"
     inkscape:window-maximized="1"
     inkscape:current-layer="svg121" />
  <path
     fill-rule="evenodd"
     clip-rule="evenodd"
     d="M 17.428571,3.1428571 H 15.714286 V 2 H 14.571429 V 3.1428571 H 5.4285714 V 2 H 4.2857143 V 3.1428571 H 2.5714286 L 2,3.7142857 V 17.428571 L 2.5714286,18 H 17.428571 L 18,17.428571 V 3.7142857 Z M 16.857143,16.857143 H 3.1428571 V 6.5714286 H 16.857143 Z m 0,-11.4285716 H 3.1428571 V 4.2857143 H 16.857143 Z M 5.4285714,10 H 4.2857143 v 1.142857 h 1.1428571 z m -1.1428571,2.285714 h 1.1428571 v 1.142857 H 4.2857143 Z m 1.1428571,2.285715 H 4.2857143 v 1.142857 H 5.4285714 Z M 7.7142857,10 h 1.1428572 v 1.142857 H 7.7142857 Z m 1.1428572,2.285714 H 7.7142857 v 1.142857 h 1.1428572 z m -1.1428572,2.285715 h 1.1428572 v 1.142857 H 7.7142857 Z M 8.8571429,7.7142857 H 7.7142857 V 8.8571429 H 8.8571429 Z M 11.142857,10 h 1.142857 v 1.142857 h -1.142857 z m 1.142857,2.285714 h -1.142857 v 1.142857 h 1.142857 z m -1.142857,2.285715 h 1.142857 v 1.142857 h -1.142857 z m 1.142857,-6.8571433 h -1.142857 v 1.1428572 h 1.142857 z M 14.571429,10 h 1.142857 v 1.142857 h -1.142857 z m 1.142857,2.285714 h -1.142857 v 1.142857 h 1.142857 z M 14.571429,7.7142857 h 1.142857 v 1.1428572 h -1.142857 z"
     id="path119"
     style="stroke-width:1.14285;fill:#ff6600" />
</svg>
