<?xml version="1.0" encoding="UTF-8" standalone="no"?>
<svg
   width="24"
   height="24"
   viewBox="0 0 24 24"
   fill="currentColor"
   version="1.1"
   id="svg7420"
   sodipodi:docname="debug.svg"
   inkscape:version="1.2 (dc2aeda, 2022-05-15)"
   xmlns:inkscape="http://www.inkscape.org/namespaces/inkscape"
   xmlns:sodipodi="http://sodipodi.sourceforge.net/DTD/sodipodi-0.dtd"
   xmlns="http://www.w3.org/2000/svg"
   xmlns:svg="http://www.w3.org/2000/svg">
  <defs
     id="defs7424" />
  <sodipodi:namedview
     id="namedview7422"
     pagecolor="#ffffff"
     bordercolor="#666666"
     borderopacity="1.0"
     inkscape:showpageshadow="2"
     inkscape:pageopacity="0.0"
     inkscape:pagecheckerboard="0"
     inkscape:deskcolor="#d1d1d1"
     showgrid="false"
     inkscape:zoom="34.25"
     inkscape:cx="12.014599"
     inkscape:cy="12"
     inkscape:window-width="1920"
     inkscape:window-height="972"
     inkscape:window-x="0"
     inkscape:window-y="25"
     inkscape:window-maximized="1"
     inkscape:current-layer="svg7420" />
  <path
     d="M10.94 13.5l-1.32 1.32a3.73 3.73 0 0 0-7.24 0L1.06 13.5 0 14.56l1.72 1.72-.22.22V18H0v1.5h1.5v.08c.077.489.214.966.41 1.42L0 22.94 1.06 24l1.65-1.65A4.308 4.308 0 0 0 6 24a4.31 4.31 0 0 0 3.29-1.65L10.94 24 12 22.94 10.09 21c.198-.464.336-.951.41-1.45v-.1H12V18h-1.5v-1.5l-.22-.22L12 14.56l-1.06-1.06zM6 13.5a2.25 2.25 0 0 1 2.25 2.25h-4.5A2.25 2.25 0 0 1 6 13.5zm3 6a3.33 3.33 0 0 1-3 3 3.33 3.33 0 0 1-3-3v-2.25h6v2.25zm14.76-9.9v1.26L13.5 17.37V15.6l8.5-5.37L9 2v9.46a5.07 5.07 0 0 0-1.5-.72V.63L8.64 0l15.12 9.6z"
     id="path7418"
     style="fill:#3b3b3b;fill-opacity:1" />
</svg>
