<?xml version="1.0" encoding="UTF-8" standalone="no"?>
<svg
   width="16"
   height="16"
   viewBox="0 0 16 16"
   fill="currentColor"
   version="1.1"
   id="svg7420"
   sodipodi:docname="debug.svg"
   inkscape:version="1.2 (dc2aeda, 2022-05-15)"
   xmlns:inkscape="http://www.inkscape.org/namespaces/inkscape"
   xmlns:sodipodi="http://sodipodi.sourceforge.net/DTD/sodipodi-0.dtd"
   xmlns="http://www.w3.org/2000/svg"
   xmlns:svg="http://www.w3.org/2000/svg">
  <defs
     id="defs7424" />
  <sodipodi:namedview
     id="namedview7422"
     pagecolor="#ffffff"
     bordercolor="#666666"
     borderopacity="1.0"
     inkscape:showpageshadow="2"
     inkscape:pageopacity="0.0"
     inkscape:pagecheckerboard="0"
     inkscape:deskcolor="#d1d1d1"
     showgrid="false"
     inkscape:zoom="34.25"
     inkscape:cx="12.072993"
     inkscape:cy="7.3284672"
     inkscape:window-width="1920"
     inkscape:window-height="972"
     inkscape:window-x="0"
     inkscape:window-y="25"
     inkscape:window-maximized="1"
     inkscape:current-layer="svg7420" />
  <path
     d="m 7.4065657,9.4375 -0.8333333,0.825 a 2.3547979,2.3312501 0 0 0 -4.5707071,0 L 1.1691919,9.4375 0.5,10.1 1.5858587,11.174999 1.4469697,11.3125 V 12.25 H 0.5 v 0.9375 h 0.9469697 v 0.04999 c 0.048611,0.305625 0.1351011,0.60375 0.2588384,0.887499 L 0.5,15.337499 1.1691919,16 2.2108585,14.96875 A 2.7196969,2.6925 0 0 0 4.2878787,16 2.7209596,2.6937499 0 0 0 6.3648991,14.96875 L 7.4065657,16 8.0757576,15.337499 6.8699495,14.125 c 0.1249999,-0.289999 0.2121212,-0.594375 0.2588384,-0.906251 v -0.0625 H 8.0757576 V 12.25 H 7.1287879 V 11.3125 L 6.9898989,11.174999 8.0757576,10.1 Z m -3.118687,0 a 1.4204546,1.40625 0 0 1 1.4204546,1.40625 H 2.8674242 A 1.4204546,1.40625 0 0 1 4.2878787,9.4375 Z m 1.8939395,3.75 a 2.1022727,2.08125 0 0 1 -1.8939395,1.875 2.1022727,2.08125 0 0 1 -1.8939394,-1.875 V 11.78125 H 6.1818182 Z M 15.5,7 V 7.7875 L 9.0227272,11.85625 V 10.75 L 14.388889,7.39375 6.1818182,2.2499999 V 8.1625 A 3.2007575,3.16875 0 0 0 5.2348486,7.7125 V 1.39375 L 5.9545455,1 Z"
     id="path7418"
     style="fill:#3b3b3b;fill-opacity:1;stroke-width:0.628148" />
</svg>
