<?xml version="1.0" encoding="UTF-8" standalone="no"?>
<svg
   xmlns:dc="http://purl.org/dc/elements/1.1/"
   xmlns:cc="http://creativecommons.org/ns#"
   xmlns:rdf="http://www.w3.org/1999/02/22-rdf-syntax-ns#"
   xmlns:svg="http://www.w3.org/2000/svg"
   xmlns="http://www.w3.org/2000/svg"
   xmlns:sodipodi="http://sodipodi.sourceforge.net/DTD/sodipodi-0.dtd"
   xmlns:inkscape="http://www.inkscape.org/namespaces/inkscape"
   inkscape:version="1.0 (4035a4f, 2020-05-01)"
   sodipodi:docname="grid.svg"
   id="svg1430"
   version="1.1"
   width="24"
   viewBox="0 0 24 24"
   height="24">
  <metadata
     id="metadata1436">
    <rdf:RDF>
      <cc:Work
         rdf:about="">
        <dc:format>image/svg+xml</dc:format>
        <dc:type
           rdf:resource="http://purl.org/dc/dcmitype/StillImage" />
        <dc:title></dc:title>
      </cc:Work>
    </rdf:RDF>
  </metadata>
  <defs
     id="defs1434" />
  <sodipodi:namedview
     inkscape:current-layer="svg1430"
     inkscape:window-maximized="0"
     inkscape:window-y="32"
     inkscape:window-x="300"
     inkscape:cy="12"
     inkscape:cx="12"
     inkscape:zoom="35"
     showgrid="false"
     id="namedview1432"
     inkscape:window-height="864"
     inkscape:window-width="1482"
     inkscape:pageshadow="2"
     inkscape:pageopacity="0"
     guidetolerance="10"
     gridtolerance="10"
     objecttolerance="10"
     borderopacity="1"
     bordercolor="#666666"
     pagecolor="#ffffff" />
  <path
     id="path1426"
     fill="none"
     d="M0 0h24v24H0z" />
  <path
     id="path1428"
     d="M20 2H4c-1.1 0-2 .9-2 2v16c0 1.1.9 2 2 2h16c1.1 0 2-.9 2-2V4c0-1.1-.9-2-2-2zM8 20H4v-4h4v4zm0-6H4v-4h4v4zm0-6H4V4h4v4zm6 12h-4v-4h4v4zm0-6h-4v-4h4v4zm0-6h-4V4h4v4zm6 12h-4v-4h4v4zm0-6h-4v-4h4v4zm0-6h-4V4h4v4z" />
  <path
     id="path1999"
     d="m 3.5972788,21.943282 c -0.7681745,-0.16713 -1.4117075,-0.829939 -1.5520392,-1.598529 -0.043677,-0.23922 -0.043677,-16.4502857 0,-16.6895056 C 2.1719528,2.9612455 2.7039923,2.354016 3.4,2.1090268 l 0.2285714,-0.080455 8.2571426,-0.00812 c 5.927375,-0.00583 8.309543,7.797e-4 8.442857,0.023427 0.703627,0.1195297 1.311663,0.6474699 1.562182,1.3563978 l 0.08068,0.2282972 V 12 20.371429 L 21.890973,20.6 c -0.244989,0.696008 -0.852218,1.228047 -1.54622,1.35476 C 20.072409,22.00449 3.8274129,21.99335 3.5972788,21.94328 Z M 8.0142857,18 V 15.985714 H 6 3.9857143 V 18 20.014286 H 6 8.0142857 Z m 6.0000003,0 V 15.985714 H 12 9.9857143 V 18 20.014286 H 12 14.014286 Z m 6,0 V 15.985714 H 18 15.985714 V 18 20.014286 H 18 20.014286 Z M 8.0142857,12 V 9.9857143 H 6 3.9857143 V 12 14.014286 H 6 8.0142857 Z m 6.0000003,0 V 9.9857143 H 12 9.9857143 V 12 14.014286 H 12 14.014286 Z m 6,0 V 9.9857143 H 18 15.985714 V 12 14.014286 H 18 20.014286 Z M 8.0142857,6 V 3.9857143 H 6 3.9857143 V 6 8.0142857 H 6 8.0142857 Z M 14.014286,6 V 3.9857143 H 12 9.9857143 V 6 8.0142857 H 12 14.014286 Z m 6,0 V 3.9857143 H 18 15.985714 V 6 8.0142857 H 18 20.014286 Z"
     style="fill:#424242;stroke:#f2f2f2;stroke-width:0.0285714" />
</svg>
