<?xml version="1.0" encoding="UTF-8" standalone="no"?>
<svg
   xmlns:dc="http://purl.org/dc/elements/1.1/"
   xmlns:cc="http://creativecommons.org/ns#"
   xmlns:rdf="http://www.w3.org/1999/02/22-rdf-syntax-ns#"
   xmlns:svg="http://www.w3.org/2000/svg"
   xmlns="http://www.w3.org/2000/svg"
   xmlns:sodipodi="http://sodipodi.sourceforge.net/DTD/sodipodi-0.dtd"
   xmlns:inkscape="http://www.inkscape.org/namespaces/inkscape"
   inkscape:version="1.0 (4035a4f, 2020-05-01)"
   sodipodi:docname="note.svg"
   id="svg837"
   version="1.1"
   width="24"
   viewBox="0 0 24 24"
   height="24"
   enable-background="new 0 0 24 24">
  <metadata
     id="metadata843">
    <rdf:RDF>
      <cc:Work
         rdf:about="">
        <dc:format>image/svg+xml</dc:format>
        <dc:type
           rdf:resource="http://purl.org/dc/dcmitype/StillImage" />
        <dc:title></dc:title>
      </cc:Work>
    </rdf:RDF>
  </metadata>
  <defs
     id="defs841" />
  <sodipodi:namedview
     inkscape:current-layer="svg837"
     inkscape:window-maximized="0"
     inkscape:window-y="23"
     inkscape:window-x="0"
     inkscape:cy="13.437126"
     inkscape:cx="12"
     inkscape:zoom="27.833333"
     showgrid="false"
     id="namedview839"
     inkscape:window-height="777"
     inkscape:window-width="1596"
     inkscape:pageshadow="2"
     inkscape:pageopacity="0"
     guidetolerance="10"
     gridtolerance="10"
     objecttolerance="10"
     borderopacity="1"
     bordercolor="#666666"
     pagecolor="#ffffff" />
  <rect
     id="rect833"
     width="24"
     height="24"
     fill="none" />
  <path
     id="path835"
     d="M19,3H4.99C3.89,3,3,3.9,3,5l0.01,14c0,1.1,0.89,2,1.99,2h10l6-6V5C21,3.9,20.1,3,19,3z M7,8h10v2H7V8z M12,14H7v-2h5V14z M14,19.5V14h5.5L14,19.5z" />
  <path
     id="path847"
     d="M 4.5501178,20.925126 C 3.8875446,20.764734 3.3346794,20.237709 3.1022292,19.54491 3.0387793,19.355803 3.0355163,19.034793 3.0263502,12.080024 3.0157685,4.0510632 3.001041,4.5923035 3.2435426,4.0981298 c 0.140067,-0.2854307 0.4976023,-0.6598287 0.7857033,-0.82276 0.1115942,-0.063111 0.3284019,-0.1468447 0.481795,-0.186076 0.2736943,-0.069999 0.4133254,-0.07132 7.4857241,-0.070799 7.998312,5.894e-4 7.426475,-0.016927 7.921686,0.2426538 0.330143,0.1730552 0.647345,0.4902569 0.8204,0.8204001 0.256094,0.4885577 0.242064,0.1522596 0.242654,5.8167354 l 5.31e-4,5.1018769 -2.991098,2.990938 -2.991098,2.990937 -5.1196806,-0.003 c -4.2877283,-0.0025 -5.1538642,-0.01127 -5.3300416,-0.05392 z M 16.769373,16.769549 c 1.506785,-1.506688 2.739609,-2.751598 2.739609,-2.766467 0,-0.01487 -1.24491,-0.02703 -2.766467,-0.02703 h -2.766467 v 2.766467 c 0,1.521557 0.01209,2.766467 0.02686,2.766467 0.01477,0 1.259683,-1.232745 2.766467,-2.739433 z M 12,13.005988 V 12 h -2.5149701 -2.51497 v 1.005988 1.005988 H 9.4850299 12 Z M 17.02994,9 V 7.9760479 H 12 6.9700599 V 9 10.023952 H 12 17.02994 Z"
     style="fill:#ffff88;stroke:#f2f2f2;stroke-width:0.0359281;fill-opacity:1" />
  <path
     id="path1540"
     d="m 14.011976,16.724551 v -2.712575 h 2.721468 2.721467 l -2.712396,2.712575 c -1.491818,1.491916 -2.716478,2.712575 -2.721468,2.712575 -0.005,0 -0.0091,-1.220659 -0.0091,-2.712575 z"
     style="fill:#505050;fill-opacity:1;stroke:#f2f2f2;stroke-width:0.0359281" />
  <path
     id="path1542"
     d="m 7.005988,13.005988 v -0.97006 h 2.4790419 2.4790421 v 0.97006 0.97006 H 9.4850299 7.005988 Z"
     style="fill:#505050;fill-opacity:1;stroke:#f2f2f2;stroke-width:0.0359281" />
  <path
     id="path1544"
     d="M 7.005988,9 V 8.011976 H 12 16.994012 V 9 9.988024 H 12 7.005988 Z"
     style="fill:#505050;fill-opacity:1;stroke:#f2f2f2;stroke-width:0.0359281" />
  <path
     id="path1546"
     d="M 4.9401198,20.912404 C 4.487463,20.891678 4.4641868,20.886623 4.1856287,20.748542 3.7829846,20.548951 3.4738175,20.235092 3.2651456,19.81409 L 3.1077844,19.496609 3.0845448,18.092616 C 3.0496611,15.985157 3.0524076,5.7094963 3.088035,5.03461 3.1185984,4.4556513 3.121172,4.4422393 3.2528206,4.1758664 3.3458856,3.9875622 3.4643591,3.8264104 3.6423808,3.645973 3.9028977,3.3819208 4.1021591,3.2577067 4.4550898,3.1393521 4.64384,3.0760552 4.9529455,3.0725904 11.353293,3.0620301 c 3.961332,-0.00654 7.008176,0.00316 7.452973,0.023715 l 0.752373,0.034771 0.271579,0.1369823 c 0.366963,0.1850933 0.726959,0.5448592 0.911683,0.9111008 0.132301,0.2623044 0.137368,0.286495 0.169316,0.8083833 0.01811,0.295893 0.03337,2.6721556 0.03391,5.2805835 l 9.79e-4,4.742596 -2.973135,2.972973 -2.973134,2.972973 -4.796327,-0.0062 c -2.6379794,-0.0034 -5.006506,-0.01578 -5.2633922,-0.02754 z m 11.8566042,-4.140161 2.76615,-2.772667 -0.161676,-0.02706 c -0.08892,-0.01489 -1.354042,-0.02826 -2.811378,-0.02973 l -2.6497,-0.0027 3.23e-4,2.613772 c 2.88e-4,2.444385 0.0127,2.991018 0.06788,2.991018 0.01224,0 1.267026,-1.2477 2.788409,-2.772667 z M 12.035928,13.005988 V 11.964072 H 9.4850299 6.9341317 v 1.041916 1.041916 H 9.4850299 12.035928 Z M 17.065868,9 V 7.9401198 H 12 6.9341317 V 9 10.05988 H 12 17.065868 Z"
     style="fill:#fffd87;fill-opacity:1;stroke:#f2f2f2;stroke-width:0.0359281" />
</svg>
