<?xml version="1.0" encoding="UTF-8" standalone="no"?>
<svg
   width="16"
   height="16"
   viewBox="0 0 16 16"
   fill="currentColor"
   version="1.1"
   id="svg11494"
   sodipodi:docname="open-file.svg"
   inkscape:version="1.2 (dc2aeda, 2022-05-15)"
   xmlns:inkscape="http://www.inkscape.org/namespaces/inkscape"
   xmlns:sodipodi="http://sodipodi.sourceforge.net/DTD/sodipodi-0.dtd"
   xmlns="http://www.w3.org/2000/svg"
   xmlns:svg="http://www.w3.org/2000/svg">
  <defs
     id="defs11498" />
  <sodipodi:namedview
     id="namedview11496"
     pagecolor="#ffffff"
     bordercolor="#666666"
     borderopacity="1.0"
     inkscape:showpageshadow="2"
     inkscape:pageopacity="0.0"
     inkscape:pagecheckerboard="0"
     inkscape:deskcolor="#d1d1d1"
     showgrid="false"
     inkscape:zoom="51.375"
     inkscape:cx="8.0097324"
     inkscape:cy="8"
     inkscape:window-width="1920"
     inkscape:window-height="972"
     inkscape:window-x="0"
     inkscape:window-y="25"
     inkscape:window-maximized="1"
     inkscape:current-layer="svg11494" />
  <path
     fill-rule="evenodd"
     clip-rule="evenodd"
     d="M6 5.914l2.06-2.06v-.708L5.915 1l-.707.707.043.043.25.25 1 1h-3a2.5 2.5 0 0 0 0 5H4V7h-.5a1.5 1.5 0 1 1 0-3h3L5.207 5.293 5.914 6 6 5.914zM11 2H8.328l-1-1H12l.71.29 3 3L16 5v9l-1 1H6l-1-1V6.5l1 .847V14h9V6h-4V2zm1 0v3h3l-3-3z"
     id="path11492"
     style="fill:#3b3b3b;fill-opacity:1" />
</svg>
