<?xml version="1.0" encoding="UTF-8" standalone="no"?>
<svg
   xmlns:dc="http://purl.org/dc/elements/1.1/"
   xmlns:cc="http://creativecommons.org/ns#"
   xmlns:rdf="http://www.w3.org/1999/02/22-rdf-syntax-ns#"
   xmlns:svg="http://www.w3.org/2000/svg"
   xmlns="http://www.w3.org/2000/svg"
   xmlns:sodipodi="http://sodipodi.sourceforge.net/DTD/sodipodi-0.dtd"
   xmlns:inkscape="http://www.inkscape.org/namespaces/inkscape"
   height="24"
   viewBox="0 0 24 24"
   width="24"
   version="1.1"
   id="svg837"
   sodipodi:docname="snap.svg"
   inkscape:version="1.0 (4035a4f, 2020-05-01)">
  <metadata
     id="metadata843">
    <rdf:RDF>
      <cc:Work
         rdf:about="">
        <dc:format>image/svg+xml</dc:format>
        <dc:type
           rdf:resource="http://purl.org/dc/dcmitype/StillImage" />
        <dc:title></dc:title>
      </cc:Work>
    </rdf:RDF>
  </metadata>
  <defs
     id="defs841" />
  <sodipodi:namedview
     inkscape:document-rotation="0"
     pagecolor="#ffffff"
     bordercolor="#666666"
     borderopacity="1"
     objecttolerance="10"
     gridtolerance="10"
     guidetolerance="10"
     inkscape:pageopacity="0"
     inkscape:pageshadow="2"
     inkscape:window-width="1190"
     inkscape:window-height="818"
     id="namedview839"
     showgrid="false"
     inkscape:zoom="27.833333"
     inkscape:cx="12"
     inkscape:cy="12"
     inkscape:window-x="574"
     inkscape:window-y="64"
     inkscape:window-maximized="0"
     inkscape:current-layer="svg837" />
  <path
     d="M0 0h24v24H0z"
     fill="none"
     id="path833" />
  <path
     d="M20 2H4c-1.1 0-2 .9-2 2v16c0 1.1.9 2 2 2h16c1.1 0 2-.9 2-2V4c0-1.1-.9-2-2-2zM8 20H4v-4h4v4zm0-6H4v-4h4v4zm0-6H4V4h4v4zm6 12h-4v-4h4v4zm0-6h-4v-4h4v4zm0-6h-4V4h4v4zm6 12h-4v-4h4v4zm0-6h-4v-4h4v4zm0-6h-4V4h4v4z"
     id="path835" />
  <path
     style="fill:#000000;stroke:#f2f2f2;stroke-width:0.0359281"
     d="M 10.023952,12 V 10.023952 H 12 13.976048 V 12 13.976048 H 12 10.023952 Z"
     id="path845" />
  <path
     id="path1408"
     d="M 3.5928143,21.931969 C 3.0091622,21.805002 2.4956866,21.400903 2.225983,20.856288 1.9977802,20.395476 2.0101339,20.934941 2.0205038,11.883354 L 2.02994,3.6467065 2.1102481,3.4105821 C 2.3169492,2.8028327 2.8280874,2.2988045 3.4296457,2.1095374 L 3.6826346,2.02994 H 12 20.317365 l 0.252989,0.079597 c 0.616044,0.1938247 1.126284,0.7040644 1.320109,1.3201083 l 0.0796,0.2529889 V 12 20.317365 l -0.0796,0.252989 c -0.190454,0.605331 -0.689484,1.111401 -1.301045,1.319398 l -0.236124,0.08031 -8.263474,0.0064 c -7.0050658,0.0054 -8.2990365,-0.0014 -8.4970057,-0.04445 z M 8.011976,18 V 15.988024 H 5.9999999 3.9880239 V 18 20.011976 h 2.011976 2.0119761 z m 6,0 V 15.988024 H 12 9.9880239 V 18 20.011976 H 12 14.011976 Z m 6,0 V 15.988024 H 18 15.988024 V 18 20.011976 H 18 20.011976 Z m -12,-6 V 9.9880239 H 5.9999999 3.9880239 V 12 14.011976 h 2.011976 2.0119761 z m 6,0 V 9.9880239 H 12 9.9880239 V 12 14.011976 H 12 14.011976 Z m 6,0 V 9.9880239 H 18 15.988024 V 12 14.011976 H 18 20.011976 Z m -12,-6.0000001 V 3.9880239 H 5.9999999 3.9880239 v 2.011976 2.0119761 h 2.011976 2.0119761 z m 6,0 V 3.9880239 H 12 9.9880239 V 5.9999999 8.011976 H 12 14.011976 Z m 6,0 V 3.9880239 H 18 15.988024 V 5.9999999 8.011976 H 18 20.011976 Z"
     style="fill:#c5c5c5;stroke:#f2f2f2;stroke-width:0.0359281" />
  <path
     id="path1410"
     d="M 10.05988,12 V 10.05988 H 12 13.94012 V 12 13.94012 H 12 10.05988 Z"
     style="fill:#c5c5c5;stroke:#f2f2f2;stroke-width:0.0359281" />
  <path
     id="path1998"
     d="M 4.2035927,21.917329 C 3.6390485,21.899851 3.5105354,21.885213 3.3504827,21.82016 2.8477322,21.615819 2.4920817,21.290052 2.2596486,20.820983 L 2.1113591,20.521722 2.0845239,19.952478 C 2.0697646,19.639393 2.0554155,15.855803 2.0526371,11.544499 L 2.0475854,3.7057645 2.1423568,3.4427026 C 2.3260885,2.9327089 2.6763751,2.5194475 3.1225187,2.2863262 3.6186029,2.0271098 2.842697,2.0479041 12.01886,2.0479041 c 8.112048,0 8.273174,0.00134 8.473431,0.070234 0.543903,0.1871303 0.980839,0.5442061 1.215642,0.993456 0.265916,0.508779 0.244163,-0.2824073 0.244163,8.8804149 0,9.168094 0.02156,8.384491 -0.244759,8.896397 -0.23346,0.448748 -0.670544,0.80612 -1.215046,0.993456 -0.200346,0.06893 -0.347399,0.0701 -7.914083,0.06314 -4.2404697,-0.0039 -8.0090464,-0.01635 -8.3746153,-0.02767 z M 8.0479041,18 V 15.952096 H 5.9999999 3.9520957 V 18 20.047904 h 2.0479042 2.0479042 z m 5.9999999,0 V 15.952096 H 12 9.9520958 V 18 20.047904 H 12 14.047904 Z m 6,0 V 15.952096 H 18 15.952096 V 18 20.047904 H 18 20.047904 Z M 8.0479041,12 V 9.9520958 H 5.9999999 3.9520957 V 12 14.047904 h 2.0479042 2.0479042 z m 5.9999999,0 V 9.9520958 H 12 9.9520958 V 12 14.047904 H 12 14.047904 Z m 6,0 V 9.9520958 H 18 15.952096 V 12 14.047904 H 18 20.047904 Z M 8.0479041,5.9999999 V 3.9520957 H 5.9999999 3.9520957 v 2.0479042 2.0479042 h 2.0479042 2.0479042 z m 5.9999999,0 V 3.9520957 H 12 9.9520958 V 5.9999999 8.0479041 H 12 14.047904 Z m 6,0 V 3.9520957 H 18 15.952096 V 5.9999999 8.0479041 H 18 20.047904 Z"
     style="fill:#424242;stroke:#f2f2f2;stroke-width:0.0359281;fill-opacity:1" />
  <path
     id="path2000"
     d="M 10.095808,12 V 10.095808 H 12 13.904192 V 12 13.904192 H 12 10.095808 Z"
     style="fill:#424242;fill-opacity:1;stroke:#f2f2f2;stroke-width:0.0359281" />
</svg>
