<?xml version="1.0" encoding="UTF-8" standalone="no"?>
<svg
   width="22"
   height="22"
   viewBox="0 0 22 22"
   fill="currentColor"
   version="1.1"
   id="svg4"
   sodipodi:docname="subflow.svg"
   inkscape:version="1.2 (dc2aeda, 2022-05-15)"
   xmlns:inkscape="http://www.inkscape.org/namespaces/inkscape"
   xmlns:sodipodi="http://sodipodi.sourceforge.net/DTD/sodipodi-0.dtd"
   xmlns="http://www.w3.org/2000/svg"
   xmlns:svg="http://www.w3.org/2000/svg">
  <defs
     id="defs8" />
  <sodipodi:namedview
     id="namedview6"
     pagecolor="#ffffff"
     bordercolor="#000000"
     borderopacity="0.25"
     inkscape:showpageshadow="2"
     inkscape:pageopacity="0.0"
     inkscape:pagecheckerboard="0"
     inkscape:deskcolor="#d1d1d1"
     showgrid="false"
     inkscape:zoom="51.0625"
     inkscape:cx="8"
     inkscape:cy="3.2998776"
     inkscape:window-width="1390"
     inkscape:window-height="967"
     inkscape:window-x="0"
     inkscape:window-y="25"
     inkscape:window-maximized="0"
     inkscape:current-layer="svg4" />
  <path
     d="m 19.730769,14.785714 h -2.66 L 11.943077,7.6428571 h 1.633846 l 0.76923,-0.7142857 V 1.2142857 L 13.576923,0.5 H 7.4230769 L 6.6538461,1.2142857 V 6.9285714 L 7.4230769,7.6428571 H 9.0569231 L 3.9292308,14.785714 h -2.66 L 0.5,15.5 v 4.285714 L 1.2692308,20.5 H 5.8846153 L 6.6538461,19.785714 V 15.5 L 5.8846153,14.785714 H 5.78 L 10.5,8.2142857 15.22,14.785714 H 15.115389 L 14.346158,15.5 v 4.285714 L 15.115389,20.5 h 4.615384 L 20.5,19.785714 V 15.5 Z M 8.1923077,6.2142857 V 1.9285714 H 12.807692 V 6.2142857 Z M 5.1153847,16.214286 v 2.857143 H 2.0384616 v -2.857143 z m 13.8461543,2.857143 h -3.076923 v -2.857143 h 3.076923 z"
     id="path2"
     style="fill:#2a7fff;stroke-width:1.4825" />
</svg>
