<?xml version="1.0" encoding="UTF-8" standalone="no"?>
<svg
   inkscape:version="1.2 (dc2aeda, 2022-05-15)"
   sodipodi:docname="subflow.svg"
   id="svg835"
   version="1.1"
   viewBox="0 0 20 20"
   height="20"
   width="20"
   xmlns:inkscape="http://www.inkscape.org/namespaces/inkscape"
   xmlns:sodipodi="http://sodipodi.sourceforge.net/DTD/sodipodi-0.dtd"
   xmlns="http://www.w3.org/2000/svg"
   xmlns:svg="http://www.w3.org/2000/svg"
   xmlns:rdf="http://www.w3.org/1999/02/22-rdf-syntax-ns#"
   xmlns:cc="http://creativecommons.org/ns#"
   xmlns:dc="http://purl.org/dc/elements/1.1/">
  <metadata
     id="metadata841">
    <rdf:RDF>
      <cc:Work
         rdf:about="">
        <dc:format>image/svg+xml</dc:format>
        <dc:type
           rdf:resource="http://purl.org/dc/dcmitype/StillImage" />
      </cc:Work>
    </rdf:RDF>
  </metadata>
  <defs
     id="defs839" />
  <sodipodi:namedview
     inkscape:current-layer="svg835"
     inkscape:window-maximized="0"
     inkscape:window-y="25"
     inkscape:window-x="0"
     inkscape:cy="12"
     inkscape:cx="12.017964"
     inkscape:zoom="27.833333"
     showgrid="false"
     id="namedview837"
     inkscape:window-height="888"
     inkscape:window-width="1564"
     inkscape:pageshadow="2"
     inkscape:pageopacity="0"
     guidetolerance="10"
     gridtolerance="10"
     objecttolerance="10"
     borderopacity="1"
     bordercolor="#666666"
     pagecolor="#ffffff"
     inkscape:showpageshadow="2"
     inkscape:pagecheckerboard="0"
     inkscape:deskcolor="#d1d1d1" />
  <path
     id="path843"
     d="M 4.4627327,1.0165329 C 3.7330871,1.0304679 2.9994685,0.99090184 2.2724449,1.0583949 1.53684,1.2198835 0.9646869,1.9447388 1.0261853,2.7032869 c -0.012594,1.7893897 -0.019679,3.5792773 0.00487,5.3685505 0.00539,0.6856039 0.5637153,1.2910295 1.2051487,1.4714347 0.8147354,0.061374 1.633552,0.040067 2.4500329,0.061014 0.019602,1.2560309 -0.00112,2.5133749 0.048796,3.7685329 0.177987,0.946387 0.9773576,1.749763 1.9347096,1.901926 0.9132592,0.06496 1.8322565,0.02916 2.7478118,0.04013 0.3245199,4.2e-5 0.6490377,8.6e-5 0.9735557,1.28e-4 0.02118,0.797183 -0.01222,1.597642 0.05195,2.392638 0.162157,0.726986 0.874821,1.316169 1.631178,1.262753 1.738917,0.01514 3.478361,0.02381 5.217208,8.99e-4 0.357076,0.0081 0.719569,-0.06428 1.00624,-0.289023 0.436674,-0.312653 0.720768,-0.843363 0.676019,-1.386435 0.01183,-1.798432 0.02115,-3.597437 -0.0062,-5.395702 -0.02024,-0.660673 -0.546638,-1.252972 -1.172077,-1.427021 -0.777455,-0.0971 -1.565357,-0.04451 -2.347225,-0.06079 -1.24542,0.0083 -2.492414,-0.0198 -3.736773,0.03137 -0.600668,0.132918 -1.095094,0.606167 -1.260353,1.197677 -0.0848,0.306748 -0.02223,0.640006 -0.04627,0.957684 -0.0046,0.494961 -0.0091,0.989926 -0.01372,1.48489 -1.1970449,-0.0055 -2.3940891,-0.01119 -3.5911335,-0.01681 C 6.3581223,13.913303 5.9785011,13.535796 5.9319267,13.054898 5.8864282,11.900543 5.9118235,10.744625 5.9045761,9.5896077 6.7009842,9.5741542 7.501028,9.6239307 8.2949766,9.5500955 8.9791399,9.4252297 9.5263847,8.7888749 9.588943,8.1068751 c 0,-1.9084664 0,-3.8169331 0,-5.7253996 C 9.4516575,1.7612402 8.970628,1.1978507 8.3374073,1.062352 7.391071,0.98218919 6.4385494,1.0308429 5.489672,1.0162089 5.1473588,1.0161551 4.8050456,1.0164373 4.4627327,1.0165329 Z m 0.8496472,1.232819 c 0.9298265,0 1.8596531,0 2.7894792,0 0.1542476,0.091272 0.2563915,0.2424346 0.2435591,0.4269465 0.050294,1.3434987 0.014575,2.6890419 0.024478,4.033348 -0.018097,0.479717 0.033446,0.9703216 -0.06414,1.442418 C 8.2336697,8.2983465 8.0878874,8.3787146 7.9255426,8.3421861 6.1119373,8.3386528 4.2975128,8.3677313 2.4844267,8.3286895 2.257989,8.2277455 2.2341484,7.968723 2.2488394,7.7524857 2.2317359,6.068294 2.2234383,4.3834293 2.2493466,2.6993794 c -0.011103,-0.1928361 0.089049,-0.438982 0.3197121,-0.419577 0.9124317,-0.056112 1.829502,-0.01991 2.7433212,-0.03045 z M 14.69715,11.65956 c 0.942764,0 1.88553,0 2.828296,0 0.209468,0.117464 0.223584,0.36162 0.224695,0.574538 0.02685,1.628567 0.01674,3.257919 0.0055,4.886651 0.005,0.216825 -0.0066,0.540472 -0.265737,0.602665 -1.099011,0.05326 -2.201241,0.01727 -3.301514,0.02855 -0.763468,0 -1.526936,0 -2.290402,0 -0.154248,-0.09126 -0.256392,-0.242434 -0.243559,-0.426945 -0.05029,-1.343499 -0.01458,-2.689042 -0.02449,-4.033348 0.0181,-0.479718 -0.03344,-0.970324 0.06415,-1.442418 0.07209,-0.146317 0.217868,-0.226684 0.380213,-0.189701 0.874265,0 1.74853,0 2.622795,0 z"
     style="fill:#b144cc;fill-opacity:1;stroke:#f2f2f2;stroke-width:0.0293592" />
</svg>
