<?xml version="1.0" encoding="UTF-8" standalone="no"?>
<svg
   xmlns:dc="http://purl.org/dc/elements/1.1/"
   xmlns:cc="http://creativecommons.org/ns#"
   xmlns:rdf="http://www.w3.org/1999/02/22-rdf-syntax-ns#"
   xmlns:svg="http://www.w3.org/2000/svg"
   xmlns="http://www.w3.org/2000/svg"
   xmlns:sodipodi="http://sodipodi.sourceforge.net/DTD/sodipodi-0.dtd"
   xmlns:inkscape="http://www.inkscape.org/namespaces/inkscape"
   viewBox="0 0 20 20"
   version="1.1"
   id="svg953"
   sodipodi:docname="typescript.svg"
   width="20"
   height="20"
   inkscape:version="1.0 (4035a4f, 2020-05-01)">
  <metadata
     id="metadata959">
    <rdf:RDF>
      <cc:Work
         rdf:about="">
        <dc:format>image/svg+xml</dc:format>
        <dc:type
           rdf:resource="http://purl.org/dc/dcmitype/StillImage" />
        <dc:title>file_type_typescript</dc:title>
      </cc:Work>
    </rdf:RDF>
  </metadata>
  <defs
     id="defs957" />
  <sodipodi:namedview
     inkscape:document-rotation="0"
     pagecolor="#ffffff"
     bordercolor="#666666"
     borderopacity="1"
     objecttolerance="10"
     gridtolerance="10"
     guidetolerance="10"
     inkscape:pageopacity="0"
     inkscape:pageshadow="2"
     inkscape:window-width="1628"
     inkscape:window-height="928"
     id="namedview955"
     showgrid="false"
     inkscape:zoom="18.539456"
     inkscape:cx="5.6167396"
     inkscape:cy="16"
     inkscape:window-x="0"
     inkscape:window-y="25"
     inkscape:window-maximized="0"
     inkscape:current-layer="svg953" />
  <title
     id="title949">file_type_typescript</title>
  <path
     d="m 16.728951,3.1257679 a 3.5476413,3.7702429 0 0 1 1.782641,1.0917001 4.6935678,4.9880722 0 0 1 0.683226,0.9740939 c 0.0088,0.03834 -1.230127,0.922959 -1.981515,1.416397 -0.02726,0.0196 -0.135522,-0.105679 -0.258214,-0.298279 a 1.6150429,1.716381 0 0 0 -1.339187,-0.852225 c -0.863655,-0.06306 -1.420179,0.417591 -1.416169,1.221238 a 1.0424805,1.1078924 0 0 0 0.122692,0.567582 c 0.190052,0.417591 0.542891,0.668145 1.651128,1.178628 2.040054,0.933185 2.915738,1.548492 3.456224,2.4228741 a 4.1362417,4.3957759 0 0 1 0.333594,3.692691 3.82029,4.0599993 0 0 1 -3.153103,2.399013 8.7407979,9.2892513 0 0 1 -2.171567,-0.02386 5.2372615,5.5658807 0 0 1 -2.899699,-1.605592 5.0343788,5.3502679 0 0 1 -0.742567,-1.1684 2.1290659,2.262657 0 0 1 0.262224,-0.177263 c 0.126701,-0.0767 0.606242,-0.369865 1.058518,-0.648543 l 0.821154,-0.511335 0.171609,0.265895 a 3.8259034,4.0659649 0 0 0 1.082576,1.101074 2.6462966,2.8123421 0 0 0 2.772998,-0.149139 1.238948,1.3166875 0 0 0 0.160381,-1.682293 c -0.221326,-0.33663 -0.673603,-0.619569 -1.959061,-1.211866 a 7.0567909,7.499579 0 0 1 -2.68559,-1.7513221 3.7585431,3.994378 0 0 1 -0.782663,-1.514404 5.7063777,6.0644323 0 0 1 -0.04972,-1.932845 3.4738658,3.6918383 0 0 1 2.922153,-2.875407 7.2171725,7.670024 0 0 1 2.157935,0.071587 z m -6.690319,1.2638495 0.0088,1.2391345 H 6.334618 V 16.833806 H 3.7163882 V 5.6313089 H 0.0035539 v -1.216977 a 11.215486,11.919217 0 0 1 0.032076,-1.2493617 c 0.013633,-0.019601 2.2710037,-0.028976 5.0079158,-0.023862 l 4.9806513,0.014487 z"
     style="fill:#3b99d8;stroke-width:0.826684;fill-opacity:1"
     id="path951" />
</svg>
