<?xml version="1.0" encoding="UTF-8" standalone="no"?>
<svg
   xmlns:dc="http://purl.org/dc/elements/1.1/"
   xmlns:cc="http://creativecommons.org/ns#"
   xmlns:rdf="http://www.w3.org/1999/02/22-rdf-syntax-ns#"
   xmlns:svg="http://www.w3.org/2000/svg"
   xmlns="http://www.w3.org/2000/svg"
   xmlns:sodipodi="http://sodipodi.sourceforge.net/DTD/sodipodi-0.dtd"
   xmlns:inkscape="http://www.inkscape.org/namespaces/inkscape"
   inkscape:version="1.0 (4035a4f, 2020-05-01)"
   height="32"
   width="32"
   sodipodi:docname="typescript.svg"
   id="svg953"
   version="1.1"
   viewBox="0 0 32 32">
  <metadata
     id="metadata959">
    <rdf:RDF>
      <cc:Work
         rdf:about="">
        <dc:format>image/svg+xml</dc:format>
        <dc:type
           rdf:resource="http://purl.org/dc/dcmitype/StillImage" />
        <dc:title>file_type_typescript</dc:title>
      </cc:Work>
    </rdf:RDF>
  </metadata>
  <defs
     id="defs957" />
  <sodipodi:namedview
     inkscape:current-layer="svg953"
     inkscape:window-maximized="0"
     inkscape:window-y="23"
     inkscape:window-x="0"
     inkscape:cy="16"
     inkscape:cx="16"
     inkscape:zoom="18.539456"
     showgrid="false"
     id="namedview955"
     inkscape:window-height="928"
     inkscape:window-width="1628"
     inkscape:pageshadow="2"
     inkscape:pageopacity="0"
     guidetolerance="10"
     gridtolerance="10"
     objecttolerance="10"
     borderopacity="1"
     bordercolor="#666666"
     pagecolor="#ffffff" />
  <title
     id="title949">file_type_typescript</title>
  <path
     id="path951"
     style="fill:#007acc"
     d="m 23.827,8.243 a 4.424,4.424 0 0 1 2.223,1.281 5.853,5.853 0 0 1 0.852,1.143 c 0.011,0.045 -1.534,1.083 -2.471,1.662 -0.034,0.023 -0.169,-0.124 -0.322,-0.35 a 2.014,2.014 0 0 0 -1.67,-1 c -1.077,-0.074 -1.771,0.49 -1.766,1.433 a 1.3,1.3 0 0 0 0.153,0.666 c 0.237,0.49 0.677,0.784 2.059,1.383 2.544,1.095 3.636,1.817 4.31,2.843 a 5.158,5.158 0 0 1 0.416,4.333 4.764,4.764 0 0 1 -3.932,2.815 10.9,10.9 0 0 1 -2.708,-0.028 6.531,6.531 0 0 1 -3.616,-1.884 6.278,6.278 0 0 1 -0.926,-1.371 2.655,2.655 0 0 1 0.327,-0.208 c 0.158,-0.09 0.756,-0.434 1.32,-0.761 l 1.024,-0.6 0.214,0.312 a 4.771,4.771 0 0 0 1.35,1.292 3.3,3.3 0 0 0 3.458,-0.175 1.545,1.545 0 0 0 0.2,-1.974 c -0.276,-0.395 -0.84,-0.727 -2.443,-1.422 a 8.8,8.8 0 0 1 -3.349,-2.055 4.687,4.687 0 0 1 -0.976,-1.777 7.116,7.116 0 0 1 -0.062,-2.268 4.332,4.332 0 0 1 3.644,-3.374 9,9 0 0 1 2.691,0.084 z m -8.343,1.483 0.011,1.454 h -4.63 V 24.328 H 7.6 V 11.183 H 2.97 V 9.755 A 13.986,13.986 0 0 1 3.01,8.289 C 3.027,8.266 5.842,8.255 9.255,8.261 l 6.211,0.017 z" />
</svg>
