<?xml version="1.0" encoding="UTF-8" standalone="no"?>
<svg
   width="16"
   height="16"
   viewBox="0 0 16 16"
   fill="currentColor"
   version="1.1"
   id="svg2372"
   sodipodi:docname="auth.svg"
   inkscape:version="1.2 (dc2aeda, 2022-05-15)"
   xmlns:inkscape="http://www.inkscape.org/namespaces/inkscape"
   xmlns:sodipodi="http://sodipodi.sourceforge.net/DTD/sodipodi-0.dtd"
   xmlns="http://www.w3.org/2000/svg"
   xmlns:svg="http://www.w3.org/2000/svg">
  <defs
     id="defs2376" />
  <sodipodi:namedview
     id="namedview2374"
     pagecolor="#ffffff"
     bordercolor="#666666"
     borderopacity="1.0"
     inkscape:showpageshadow="2"
     inkscape:pageopacity="0.0"
     inkscape:pagecheckerboard="0"
     inkscape:deskcolor="#d1d1d1"
     showgrid="false"
     inkscape:zoom="51.375"
     inkscape:cx="8.0291971"
     inkscape:cy="8"
     inkscape:window-width="1920"
     inkscape:window-height="972"
     inkscape:window-x="0"
     inkscape:window-y="25"
     inkscape:window-maximized="1"
     inkscape:current-layer="svg2372" />
  <path
     fill-rule="evenodd"
     clip-rule="evenodd"
     d="M11.351 1.091a4.528 4.528 0 0 1 3.44 3.16c.215.724.247 1.49.093 2.23a4.583 4.583 0 0 1-4.437 3.6c-.438 0-.874-.063-1.293-.19l-.8.938-.379.175H7v1.5l-.5.5H5v1.5l-.5.5h-3l-.5-.5v-2.307l.146-.353L6.12 6.87a4.464 4.464 0 0 1-.2-1.405 4.528 4.528 0 0 1 5.431-4.375zm1.318 7.2a3.568 3.568 0 0 0 1.239-2.005l.004.005A3.543 3.543 0 0 0 9.72 2.08a3.576 3.576 0 0 0-2.8 3.4c-.01.456.07.908.239 1.33l-.11.543L2 12.404v1.6h2v-1.5l.5-.5H6v-1.5l.5-.5h1.245l.876-1.016.561-.14a3.47 3.47 0 0 0 1.269.238 3.568 3.568 0 0 0 2.218-.795zm-.838-2.732a1 1 0 1 0-1.662-1.11 1 1 0 0 0 1.662 1.11z"
     id="path2370" />
  <path
     style="fill:#3b3b3b;stroke:#424242;stroke-width:0.0194647;fill-opacity:1"
     d="M 10.445332,1.002319 C 9.4115509,0.99945245 8.3843657,1.3650062 7.5864438,2.0226651 6.5226892,2.8756437 5.8862085,4.2346472 5.9274822,5.5991856 5.9234034,6.0305032 6.000823,6.4572559 6.1178528,6.8710462 4.4587362,8.5320455 2.7996095,10.193035 1.1404729,11.854015 c -0.061082,0.165264 -0.17020451,0.320901 -0.1380398,0.504904 0,0.713922 0,1.427843 0,2.141765 0.1652701,0.165618 0.3305301,0.331245 0.4957801,0.496883 1.0056772,0 2.0113545,0 3.0170316,0 0.1591719,-0.158752 0.3183239,-0.317524 0.4774559,-0.476315 0,-0.503029 0,-1.006058 0,-1.509087 0.5017234,0 1.0034468,0 1.5051702,0 0.1665554,-0.164814 0.3331206,-0.329617 0.499696,-0.494411 0,-0.503485 0,-1.00697 0,-1.510455 0.3296216,-0.0054 0.6640555,0.01091 0.9906641,-0.0082 0.1685982,-0.09108 0.377477,-0.129145 0.4821338,-0.304365 0.229563,-0.261106 0.4458082,-0.539065 0.6821975,-0.7912282 0.2789676,0.052426 0.5566745,0.1384762 0.8440499,0.1495892 0.5699168,0.04761 1.1492658,0.01064 1.6975788,-0.1596638 C 13.039233,9.5097966 14.176279,8.47272 14.674927,7.1650968 14.882904,6.6401908 14.989871,6.0761302 14.969015,5.5109876 14.983872,4.4570474 14.577774,3.4135918 13.904995,2.6086147 13.061502,1.6008256 11.761618,0.98887071 10.445332,1.002319 Z m 0.171038,1.0154349 c 1.250006,0.038605 2.442556,0.8139946 2.991876,1.9370926 0.376371,0.7373153 0.469993,1.6099658 0.279376,2.4135765 -0.280544,1.1675655 -1.190002,2.156965 -2.332041,2.5296533 -0.408209,0.14326 -0.841663,0.1917559 -1.272497,0.1706009 -0.3814398,0.00609 -0.7524434,-0.093944 -1.1086618,-0.2213916 -0.186364,0.0546 -0.3895436,0.08191 -0.5656234,0.1531675 -0.2856074,0.3315603 -0.5712146,0.6631204 -0.856822,0.9946807 -0.41711,0 -0.8342203,0 -1.2513306,0 -0.1652498,0.1656372 -0.3305099,0.3312652 -0.49578,0.4968822 0,0.502662 0,1.005323 0,1.507984 C 5.5018375,12 4.9988088,12 4.49578,12 4.3305302,12.165638 4.1652701,12.331265 4,12.496883 c 0,0.502661 0,1.005322 0,1.507983 -0.6682887,0 -1.3365775,0 -2.0048662,0 0,-0.526624 0,-1.053249 0,-1.579874 C 3.6788321,10.733006 5.3625304,9.0410203 7.0462287,7.3490344 7.0786219,7.1673364 7.1383274,6.984168 7.1536794,6.8033701 7.0051194,6.3852241 6.9061837,5.9449732 6.931956,5.4987835 6.9235745,4.6647963 7.2642546,3.8437102 7.8064932,3.2170772 8.3714604,2.5758412 9.1743266,2.1316901 10.026992,2.0371046 c 0.195871,-0.017254 0.392819,-0.022065 0.589378,-0.019351 z"
     id="path2981" />
  <path
     style="fill:#424242;stroke:#424242;stroke-width:0.0194647"
     d="M 11.01266,3.9811055 C 10.509428,3.9707327 10.042793,4.3990646 10.029349,4.9056417 9.9616664,5.4853633 10.518303,6.0318801 11.096426,5.9622423 11.69225,5.9481812 12.150884,5.298488 11.987606,4.730003 11.886067,4.2889384 11.466478,3.9619926 11.01266,3.9811055 Z"
     id="path2983" />
</svg>
