<?xml version="1.0" encoding="UTF-8" standalone="no"?>
<svg
   xmlns:dc="http://purl.org/dc/elements/1.1/"
   xmlns:cc="http://creativecommons.org/ns#"
   xmlns:rdf="http://www.w3.org/1999/02/22-rdf-syntax-ns#"
   xmlns:svg="http://www.w3.org/2000/svg"
   xmlns="http://www.w3.org/2000/svg"
   xmlns:sodipodi="http://sodipodi.sourceforge.net/DTD/sodipodi-0.dtd"
   xmlns:inkscape="http://www.inkscape.org/namespaces/inkscape"
   version="1.1"
   viewBox="0 0 24 24"
   id="svg3741"
   sodipodi:docname="diff-light.svg"
   inkscape:version="0.92.4 (5da689c313, 2019-01-14)">
  <metadata
     id="metadata3747">
    <rdf:RDF>
      <cc:Work
         rdf:about="">
        <dc:format>image/svg+xml</dc:format>
        <dc:type
           rdf:resource="http://purl.org/dc/dcmitype/StillImage" />
        <dc:title></dc:title>
      </cc:Work>
    </rdf:RDF>
  </metadata>
  <defs
     id="defs3745">
    <filter
       style="color-interpolation-filters:sRGB;"
       inkscape:label="Greyscale"
       id="filter3805">
      <feColorMatrix
         values="0.21 0.72 0.072 0 0 0.21 0.72 0.072 0 0 0.21 0.72 0.072 0 0 0 0 0 1 0 "
         id="feColorMatrix3803" />
    </filter>
  </defs>
  <sodipodi:namedview
     pagecolor="#ffffff"
     bordercolor="#666666"
     borderopacity="1"
     objecttolerance="10"
     gridtolerance="10"
     guidetolerance="10"
     inkscape:pageopacity="0"
     inkscape:pageshadow="2"
     inkscape:window-width="1747"
     inkscape:window-height="1368"
     id="namedview3743"
     showgrid="false"
     inkscape:zoom="9.8333333"
     inkscape:cx="12"
     inkscape:cy="12"
     inkscape:window-x="1683"
     inkscape:window-y="514"
     inkscape:window-maximized="0"
     inkscape:current-layer="svg3741" />
  <path
     d="m3.5 1.5c-1.11 0-2 .89-2 2v11c0 1.11.89 2 2 2h2v-2h-2v-11h11v2h2v-2c0-1.11-.89-2-2-2h-11m6 6c-1.11 0-2 .89-2 2v2h2v-2h2v-2h-2m4 0v2h1v1h2v-3h-3m5 0v2h2v11h-11v-2h-2v2c0 1.11.89 2 2 2h11c1.11 0 2-.89 2-2v-11c0-1.11-.89-2-2-2h-2m-4 5v2h-2v2h2c1.11 0 2-.89 2-2v-2h-2m-7 1v3h3v-2h-1v-1z"
     style="fill:#42a5f5;filter:url(#filter3805)"
     id="path3739" />
  <path
     style="fill:#cccccc;stroke-width:0.10169491"
     d="M 2.6482129,16.223629 C 2.31745,16.058803 2.0488464,15.824965 1.8655338,15.542256 L 1.5864407,15.11183 V 9 2.8881699 L 1.8655338,2.4577442 C 2.0488464,2.1750342 2.31745,1.9411973 2.6482129,1.7763712 l 0.503586,-0.2509475 5.852914,0.00223 c 5.4799871,0.00209 5.8788331,0.014233 6.2596941,0.1905662 0.473465,0.2192072 0.90755,0.6525789 1.061327,1.0595834 0.05949,0.1574546 0.108164,0.8324546 0.108164,1.5 V 5.4915254 H 15.467797 14.501695 V 4.4745763 3.4576271 H 8.959322 3.4169492 V 9 14.542373 h 1.0169491 1.0169492 v 0.966102 0.966101 H 4.3013231 c -1.0182939,0 -1.2070139,-0.02865 -1.6531102,-0.250947 z"
     id="path3817"
     inkscape:connector-curvature="0" />
  <path
     style="fill:#cccccc;stroke-width:0.10169491"
     d="m 7.5864407,10.189848 c 0,-1.2470159 0.01172,-1.3197534 0.2790931,-1.7321038 C 8.0488464,8.1750342 8.31745,7.9411973 8.6482129,7.7763712 9.0943092,7.554072 9.2830292,7.5254237 10.301323,7.5254237 h 1.149524 V 8.4915254 9.4576271 H 10.433898 9.4169492 v 1.0169489 1.016949 H 8.5016949 7.5864407 Z"
     id="path3819"
     inkscape:connector-curvature="0" />
  <path
     style="fill:#cccccc;stroke-width:0.10169491"
     d="M 14.501695,9.9661017 V 9.4576271 H 14.044068 13.586441 V 8.4915254 7.5254237 h 1.423728 1.423729 V 9 10.474576 h -0.966101 -0.966102 z"
     id="path3821"
     inkscape:connector-curvature="0" />
  <path
     style="fill:#cccccc;stroke-width:0.10169491"
     d="M 8.6482129,22.223629 C 8.31745,22.058803 8.0488464,21.824965 7.8655338,21.542256 7.5981608,21.129905 7.5864407,21.057168 7.5864407,19.810152 v -1.301677 h 0.9152542 0.9152543 v 1.016949 1.016949 h 5.5423728 5.542373 V 15 9.4576271 H 19.535593 18.569492 V 8.4915254 7.5254237 l 1.144067,0.00223 c 0.895891,0.00175 1.232309,0.043088 1.550848,0.1905662 0.473465,0.2192072 0.90755,0.6525789 1.061327,1.0595834 0.149725,0.3962815 0.149725,12.0481047 0,12.4443857 -0.153777,0.407005 -0.587862,0.840376 -1.061327,1.059584 -0.380861,0.176333 -0.779707,0.188475 -6.259694,0.190566 l -5.8529141,0.0022 z"
     id="path3823"
     inkscape:connector-curvature="0" />
  <path
     style="fill:#cccccc;stroke-width:0.10169491"
     d="m 12.569492,15.508475 v -0.966102 h 0.966101 0.966102 v -1.016949 -1.016949 h 0.966102 0.966101 v 1.213718 c 0,1.319598 -0.07402,1.633921 -0.48952,2.078766 -0.494198,0.529099 -0.958719,0.6689 -2.230819,0.671384 l -1.144067,0.0022 z"
     id="path3825"
     inkscape:connector-curvature="0" />
  <path
     style="fill:#333333;stroke-width:0.10169491"
     d="m 7.5864407,15 v -1.474576 h 0.9152542 0.9152543 v 0.508474 0.508475 h 0.5084745 0.5084743 v 0.966102 0.966101 H 9.0101695 7.5864407 Z"
     id="path3827"
     inkscape:connector-curvature="0" />
  <path
     style="fill:#333333;stroke-width:0.10169491"
     d="M 2.9085752,16.370583 C 2.9085198,16.341354 2.7450365,16.229421 2.5452789,16.121844 2.3455214,16.014267 2.0845906,15.786488 1.9654328,15.615668 1.846275,15.444847 1.711529,15.279054 1.6659973,15.247238 c -0.045532,-0.03182 -0.082785,-2.835916 -0.082785,-6.2313332 0,-6.0491219 0.00413,-6.1779191 0.205004,-6.3935323 0.1127522,-0.1210253 0.205004,-0.2565303 0.205004,-0.3011223 0,-0.044592 0.1944916,-0.2071447 0.4322034,-0.3612284 0.2377119,-0.1540837 0.460188,-0.3187898 0.4943915,-0.3660135 0.034203,-0.047224 2.7342033,-0.067302 6,-0.044619 5.0685778,0.035205 5.9899168,0.064224 6.2937438,0.1982289 0.400745,0.1767511 1.141593,0.8396029 1.04564,0.9355557 -0.03442,0.034424 -0.02064,0.062805 0.03063,0.063069 0.05127,2.644e-4 0.109345,0.6180608 0.129052,1.3728814 l 0.03583,1.3724009 H 15.478204 14.501695 V 4.5271384 3.5627514 L 8.9593014,3.535613 3.4169079,3.5084746 3.416796,9 3.4166841,14.491525 h 1.0425064 1.0425064 l 0.029226,1.001415 0.029226,1.001414 -1.3257352,-0.03531 C 3.5052586,16.43962 2.9086325,16.399813 2.9085772,16.370583 Z"
     id="path3829"
     inkscape:connector-curvature="0" />
  <path
     style="fill:#333333;stroke-width:0.10169491"
     d="M 7.6028713,10.192302 C 7.6489661,8.7128714 7.7952122,8.334153 8.4813973,7.9172739 8.6883237,7.7915595 8.8805085,7.6634053 8.9084746,7.6324868 8.9364407,7.6015682 9.5445179,7.5595147 10.259757,7.5390346 l 1.300435,-0.037237 -0.02925,1.0033384 -0.02925,1.0033383 H 10.459189 9.4166821 L 9.4168143,10.5 l 1.349e-4,0.991525 h -0.927279 -0.927279 z"
     id="path3831"
     inkscape:connector-curvature="0" />
  <path
     style="fill:#333333;stroke-width:0.10169491"
     d="M 14.501695,10.016949 V 9.559322 H 14.044068 13.586441 V 8.5423729 7.5254237 h 1.423728 1.423729 V 9 10.474576 h -0.966101 -0.966102 z"
     id="path3833"
     inkscape:connector-curvature="0" />
  <path
     style="fill:#333333;stroke-width:0.10169491"
     d="m 12.569492,15.472739 v -1.032061 h 0.966101 0.966102 v -0.966102 -0.966101 h 0.979831 0.979832 l -0.05966,1.245762 c -0.07847,1.638407 -0.06911,1.59742 -0.453939,1.987967 -0.495742,0.503105 -0.934885,0.642261 -2.22776,0.705935 l -1.150505,0.05666 z"
     id="path3835"
     inkscape:connector-curvature="0" />
  <path
     style="fill:#333333;stroke-width:0.10169491"
     d="m 8.9084746,22.404978 c 0,-0.04815 -0.1665702,-0.177244 -0.370156,-0.286882 C 8.3347328,22.008458 8.0502183,21.740528 7.9060642,21.522697 7.6657322,21.15953 7.6405785,21.017924 7.6031785,19.817557 l -0.040787,-1.309082 h 0.927279 0.927279 l -2.1e-5,0.991525 -2.06e-5,0.991525 5.5423931,-0.02714 5.542394,-0.02714 V 14.998285 9.559322 H 19.535593 18.569492 V 8.5322326 7.5051432 l 1.270911,0.035564 c 0.699002,0.01956 1.271036,0.066802 1.271187,0.1049822 1.02e-4,0.03818 0.08254,0.095528 0.183084,0.1274397 0.100545,0.031912 0.370228,0.2327865 0.599294,0.4463882 l 0.416487,0.3883666 0.0363,1.4163971 c 0.04683,1.82754 0.04689,8.123 8.7e-5,9.943743 l -0.03621,1.408703 -0.370568,0.356818 c -0.724856,0.697957 -0.451368,0.670178 -7.05701,0.716802 -3.303866,0.02332 -5.9745764,0.003 -5.9745764,-0.04537 z"
     id="path3837"
     inkscape:connector-curvature="0" />
</svg>
