<?xml version="1.0" encoding="UTF-8" standalone="no"?>
<svg
   xmlns:dc="http://purl.org/dc/elements/1.1/"
   xmlns:cc="http://creativecommons.org/ns#"
   xmlns:rdf="http://www.w3.org/1999/02/22-rdf-syntax-ns#"
   xmlns:svg="http://www.w3.org/2000/svg"
   xmlns="http://www.w3.org/2000/svg"
   xmlns:sodipodi="http://sodipodi.sourceforge.net/DTD/sodipodi-0.dtd"
   xmlns:inkscape="http://www.inkscape.org/namespaces/inkscape"
   inkscape:version="1.0 (4035a4f, 2020-05-01)"
   sodipodi:docname="flow.svg"
   id="svg12"
   version="1.1"
   viewBox="0 0 50 50"
   enable-background="new 0 0 50 50">
  <metadata
     id="metadata18">
    <rdf:RDF>
      <cc:Work
         rdf:about="">
        <dc:format>image/svg+xml</dc:format>
        <dc:type
           rdf:resource="http://purl.org/dc/dcmitype/StillImage" />
        <dc:title></dc:title>
      </cc:Work>
    </rdf:RDF>
  </metadata>
  <defs
     id="defs16" />
  <sodipodi:namedview
     inkscape:current-layer="svg12"
     inkscape:window-maximized="0"
     inkscape:window-y="23"
     inkscape:window-x="0"
     inkscape:cy="-32.210965"
     inkscape:cx="25"
     inkscape:zoom="16.78"
     showgrid="false"
     id="namedview14"
     inkscape:window-height="860"
     inkscape:window-width="857"
     inkscape:pageshadow="2"
     inkscape:pageopacity="0"
     guidetolerance="10"
     gridtolerance="10"
     objecttolerance="10"
     borderopacity="1"
     bordercolor="#666666"
     pagecolor="#ffffff" />
  <path
     id="path10"
     d="M17.9,22.3h-4.1c-0.6,0-1,0.4-1,1v10.2C9,34,6,37.3,6,41.2c0,4.3,3.5,7.8,7.8,7.8s7.8-3.5,7.8-7.8   c0-4-3-7.2-6.8-7.7v-9.2h3.1l6.4,6.4c0.2,0.2,0.5,0.3,0.7,0.3s0.5-0.1,0.7-0.3l6.4-6.4h3.1v9.2c-3.8,0.5-6.8,3.8-6.8,7.7   c0,4.3,3.5,7.8,7.8,7.8s7.8-3.5,7.8-7.8c0-4-3-7.2-6.8-7.7V23.3c0-0.6-0.4-1-1-1h-4.1L26,16.2V13h14.9c0.6,0,1-0.4,1-1V2   c0-0.6-0.4-1-1-1H9.1c-0.6,0-1,0.4-1,1v10c0,0.6,0.4,1,1,1H24v3.2L17.9,22.3z M19.6,41.2c0,3.2-2.6,5.8-5.8,5.8S8,44.4,8,41.2   s2.6-5.8,5.8-5.8S19.6,38,19.6,41.2z M42,41.2c0,3.2-2.6,5.8-5.8,5.8s-5.8-2.6-5.8-5.8s2.6-5.8,5.8-5.8S42,38,42,41.2z M10.1,3   h29.9v8H10.1V3z M25,28.6l-5.3-5.3L25,18l5.3,5.3L25,28.6z"
     fill="#010101" />
  <path
     id="path20"
     d="M 12.968342,48.927687 C 11.131477,48.696142 9.6355223,47.966266 8.337608,46.668352 7.1967936,45.527537 6.5132885,44.261423 6.1629495,42.640048 6.0202501,41.979632 6.0204019,40.438713 6.1632314,39.779499 c 0.4227343,-1.951082 1.4971839,-3.627612 3.0715466,-4.79272 0.881892,-0.652645 2.364909,-1.289352 3.28854,-1.411876 l 0.287065,-0.03808 0.01614,-5.292075 c 0.01606,-5.263745 0.01681,-5.292976 0.140813,-5.460306 0.06857,-0.09253 0.213327,-0.228571 0.321685,-0.302319 0.195573,-0.133106 0.213222,-0.134089 2.408325,-0.134089 h 2.211309 l 3.054014,-3.054446 3.054015,-3.054446 v -1.622639 -1.62264 l -7.613231,-0.016 -7.6132295,-0.016 -0.2085817,-0.129972 C 8.4669249,12.760403 8.3194279,12.612906 8.2538737,12.504116 8.1370586,12.310257 8.1346841,12.200654 8.1346841,7.0023838 V 1.6984505 L 8.2646561,1.4898689 C 8.3361406,1.375149 8.4836377,1.227652 8.5924272,1.1620977 8.7889371,1.0436852 8.8958894,1.0429082 25,1.0429082 c 16.104111,0 16.211063,7.77e-4 16.407573,0.1191895 0.108789,0.065554 0.256286,0.2130513 0.327771,0.3277712 l 0.129972,0.2085816 v 5.3039333 c 0,5.1982702 -0.0024,5.3078732 -0.11919,5.5017322 -0.06555,0.10879 -0.213051,0.256287 -0.327771,0.327771 l -0.208581,0.129972 -7.61323,0.016 -7.613231,0.016 v 1.623072 1.623071 l 3.054447,3.054014 3.054446,3.054014 h 2.210876 c 2.194656,0 2.212323,9.84e-4 2.407894,0.134089 0.108358,0.07375 0.253117,0.209792 0.321685,0.302319 0.124,0.167327 0.124756,0.196623 0.14081,5.455901 l 0.01614,5.287671 0.413114,0.07084 c 0.974754,0.167152 2.246973,0.704189 3.087387,1.303267 0.570054,0.406356 1.335415,1.158747 1.776779,1.746671 0.654165,0.871387 1.201459,2.152058 1.401576,3.279695 0.1277,0.719582 0.09601,2.117679 -0.06413,2.829494 -0.356168,1.583151 -1.011971,2.780392 -2.14195,3.910372 -0.878713,0.878712 -1.783867,1.457863 -2.911875,1.863125 -1.568495,0.563517 -3.524911,0.563517 -5.093406,0 -3.012431,-1.082283 -5.040768,-3.79457 -5.208007,-6.964135 -0.157458,-2.984209 1.555242,-5.874752 4.302298,-7.261034 0.644823,-0.325406 1.451637,-0.604246 2.040583,-0.705239 l 0.428516,-0.07348 v -4.63626 -4.63626 H 33.65685 32.093201 l -3.308222,3.302969 c -2.858509,2.85397 -3.340881,3.311522 -3.548479,3.365894 -0.529097,0.138576 -0.414751,0.234292 -4.021479,-3.366285 L 17.906799,24.255066 H 16.34315 14.779499 v 4.63626 4.63626 l 0.431079,0.07392 c 0.613799,0.105255 1.60034,0.44833 2.188634,0.761109 1.528365,0.81259 2.840898,2.210064 3.511175,3.7384 0.841803,1.919444 0.872749,4.035231 0.08761,5.989692 -0.679689,1.691962 -2.017649,3.16065 -3.629505,3.984136 -0.747559,0.381923 -1.30168,0.580224 -2.044128,0.731525 -0.682972,0.139181 -1.770188,0.195165 -2.356022,0.121317 z m 2.287915,-2.08256 c 1.992908,-0.519678 3.554829,-2.040759 4.147355,-4.03891 0.210926,-0.711297 0.266211,-1.963812 0.118795,-2.691342 -0.45254,-2.233375 -2.050516,-3.957811 -4.216291,-4.549957 -0.426426,-0.11659 -0.640363,-0.135828 -1.50993,-0.13578 -1.095786,6e-5 -1.323753,0.03956 -2.217574,0.384256 -0.885145,0.341348 -1.854838,1.092939 -2.4555428,1.903245 -0.3741169,0.504656 -0.7999011,1.384614 -0.9693178,2.003266 -0.1089248,0.397756 -0.1310793,0.639698 -0.1336981,1.460071 -0.00375,1.174242 0.098687,1.648332 0.5601251,2.592372 0.8062286,1.649435 2.2791996,2.770485 4.1505536,3.158907 0.608477,0.126296 1.876771,0.08304 2.525525,-0.08613 z m 21.9697,0.08588 c 1.874782,-0.358705 3.380501,-1.492688 4.194115,-3.158662 0.461278,-0.944525 0.563622,-1.418403 0.559874,-2.592372 -0.0037,-1.172404 -0.09896,-1.606173 -0.555975,-2.532777 -0.693305,-1.405684 -1.800494,-2.405737 -3.227234,-2.914955 -0.777557,-0.277518 -1.316208,-0.352943 -2.269314,-0.317761 -1.173087,0.0433 -1.951587,0.285531 -2.922433,0.909313 -0.585725,0.376337 -1.436839,1.256073 -1.793526,1.853842 -0.341639,0.57255 -0.658892,1.433267 -0.759911,2.061661 -0.115917,0.721071 -0.04861,1.92086 0.143999,2.566918 0.492332,1.651387 1.614032,2.958794 3.157795,3.680595 0.443573,0.207397 1.174171,0.429233 1.61614,0.49072 0.433109,0.06025 1.428817,0.0353 1.85647,-0.04652 z M 27.711561,25.953516 30.363026,23.301549 27.711561,20.649583 C 26.253256,19.191001 25.033053,17.997616 25,17.997616 c -0.03305,0 -1.253256,1.193385 -2.711561,2.651967 l -2.651465,2.651966 2.651465,2.651967 c 1.458305,1.458582 2.678508,2.651967 2.711561,2.651967 0.03305,0 1.253256,-1.193385 2.711561,-2.651967 z M 40.047676,7.0023838 V 2.9797378 H 25.059595 10.071514 v 4.022646 4.0226462 h 14.988081 14.988081 z"
     style="fill:#00ffff;stroke-width:0.0595948" />
</svg>
