<?xml version="1.0" encoding="UTF-8" standalone="no"?>
<svg
   xmlns:dc="http://purl.org/dc/elements/1.1/"
   xmlns:cc="http://creativecommons.org/ns#"
   xmlns:rdf="http://www.w3.org/1999/02/22-rdf-syntax-ns#"
   xmlns:svg="http://www.w3.org/2000/svg"
   xmlns="http://www.w3.org/2000/svg"
   xmlns:sodipodi="http://sodipodi.sourceforge.net/DTD/sodipodi-0.dtd"
   xmlns:inkscape="http://www.inkscape.org/namespaces/inkscape"
   inkscape:version="1.0 (4035a4f, 2020-05-01)"
   sodipodi:docname="submit-dark.svg"
   id="svg34"
   version="1.1"
   viewBox="0 0 16 16"
   height="16"
   width="16">
  <metadata
     id="metadata38">
    <rdf:RDF>
      <cc:Work
         rdf:about="">
        <dc:format>image/svg+xml</dc:format>
        <dc:type
           rdf:resource="http://purl.org/dc/dcmitype/StillImage" />
        <dc:title></dc:title>
      </cc:Work>
    </rdf:RDF>
  </metadata>
  <sodipodi:namedview
     inkscape:current-layer="svg34"
     inkscape:window-maximized="0"
     inkscape:window-y="23"
     inkscape:window-x="0"
     inkscape:cy="8"
     inkscape:cx="8"
     inkscape:zoom="52.375"
     showgrid="false"
     id="namedview36"
     inkscape:window-height="790"
     inkscape:window-width="978"
     inkscape:pageshadow="2"
     inkscape:pageopacity="0"
     guidetolerance="10"
     gridtolerance="10"
     objecttolerance="10"
     borderopacity="1"
     bordercolor="#666666"
     pagecolor="#ffffff" />
  <defs
     id="defs30">
    <mask
       height="16"
       width="16"
       y="0"
       x="0"
       id="mask">
      <path
         id="path23"
         style="stroke: white; stroke-width: 1.5; fill: none;"
         d="M2,7 A8,12 0 0 1 14,7" />
      <path
         id="path25"
         style="stroke: white; stroke-width: 1.5; fill: none;"
         d="M15,3 L15,7.5 L11,7.5" />
      <circle
         id="circle27"
         style="fill: white;"
         r="2"
         cy="11"
         cx="8" />
    </mask>
  </defs>
  <rect
     id="rect32"
     mask="url(#mask)"
     style="fill: #707070; opacity: 0.8; mask: url(#mask);"
     height="16"
     width="16"
     y="0"
     x="0" />
  <path
     id="path40"
     d="M 11.00716,7.50358 V 6.7684964 h 0.973747 c 0.692823,0 0.973747,-0.00603 0.973747,-0.020909 0,-0.0115 -0.0975,-0.1516172 -0.216676,-0.3113711 C 11.558998,4.8557539 10.13338,3.9252337 8.5632458,3.7113129 8.329508,3.6794675 7.670492,3.6794675 7.4367542,3.7113129 6.3194526,3.8635381 5.3151643,4.357146 4.3415994,5.232582 3.8299294,5.6926791 3.2863746,6.3471431 2.865084,7.0103717 2.7661489,7.1661232 2.6738717,7.3087502 2.6600234,7.3273207 2.6368074,7.3584537 2.599129,7.3400724 2.176611,7.0914889 1.9245823,6.9432109 1.6392566,6.7754383 1.5425538,6.718661 L 1.3667304,6.6154297 1.5301216,6.353061 C 2.801817,4.31101 4.5195147,2.918623 6.3866348,2.416311 6.927642,2.2707637 7.270795,2.2228451 7.8603939,2.2105122 c 0.5094413,-0.010656 0.7405562,0.00509 1.1897254,0.081073 1.8662747,0.3156918 3.6458037,1.5391714 5.0071597,3.4425722 l 0.195704,0.2736268 v -1.500312 -1.500312 h 0.74463 0.74463 V 5.6229117 8.2386635 H 13.374702 11.00716 Z"
     style="fill:#cccccc;stroke-width:0.0190931" />
  <path
     id="path42"
     d="M 7.6849642,12.96515 C 6.8868887,12.833922 6.2584531,12.242154 6.0586186,11.433698 c -0.0629,-0.254471 -0.058293,-0.651791 0.010591,-0.913412 0.2857051,-1.0851 1.3877297,-1.7312198 2.45585,-1.4398707 0.078759,0.021483 0.2377088,0.085005 0.3532219,0.1411598 0.8349656,0.4059061 1.2774255,1.3556709 1.0502095,2.2543309 -0.093102,0.368226 -0.270489,0.676335 -0.5432508,0.943589 -0.265942,0.260572 -0.6155013,0.450002 -0.9737066,0.527663 -0.1875358,0.04066 -0.5362111,0.04929 -0.7265695,0.01799 z"
     style="fill:#cccccc;stroke-width:0.0190931" />
</svg>
