<?xml version="1.0" encoding="UTF-8" standalone="no"?>
<svg
   xmlns:dc="http://purl.org/dc/elements/1.1/"
   xmlns:cc="http://creativecommons.org/ns#"
   xmlns:rdf="http://www.w3.org/1999/02/22-rdf-syntax-ns#"
   xmlns:svg="http://www.w3.org/2000/svg"
   xmlns="http://www.w3.org/2000/svg"
   xmlns:sodipodi="http://sodipodi.sourceforge.net/DTD/sodipodi-0.dtd"
   xmlns:inkscape="http://www.inkscape.org/namespaces/inkscape"
   inkscape:version="1.0 (4035a4f, 2020-05-01)"
   sodipodi:docname="close.svg"
   id="svg835"
   version="1.1"
   fill="none"
   viewBox="0 0 16 16"
   height="16"
   width="16">
  <metadata
     id="metadata841">
    <rdf:RDF>
      <cc:Work
         rdf:about="">
        <dc:format>image/svg+xml</dc:format>
        <dc:type
           rdf:resource="http://purl.org/dc/dcmitype/StillImage" />
      </cc:Work>
    </rdf:RDF>
  </metadata>
  <defs
     id="defs839" />
  <sodipodi:namedview
     inkscape:current-layer="svg835"
     inkscape:window-maximized="0"
     inkscape:window-y="23"
     inkscape:window-x="0"
     inkscape:cy="8"
     inkscape:cx="8"
     inkscape:zoom="41.75"
     showgrid="false"
     id="namedview837"
     inkscape:window-height="791"
     inkscape:window-width="1376"
     inkscape:pageshadow="2"
     inkscape:pageopacity="0"
     guidetolerance="10"
     gridtolerance="10"
     objecttolerance="10"
     borderopacity="1"
     bordercolor="#666666"
     pagecolor="#ffffff" />
  <path
     id="path833"
     fill="#C5C5C5"
     d="M8.00004 8.70711L11.6465 12.3536L12.3536 11.6465L8.70714 8.00001L12.3536 4.35356L11.6465 3.64645L8.00004 7.2929L4.35359 3.64645L3.64648 4.35356L7.29293 8.00001L3.64648 11.6465L4.35359 12.3536L8.00004 8.70711Z"
     clip-rule="evenodd"
     fill-rule="evenodd" />
  <path
     id="path843"
     d="M 4.005883,11.994117 3.6646239,11.652858 5.4909359,9.826429 7.3172479,8 5.4909359,6.173571 3.6646239,4.347142 4.005883,4.005883 4.347142,3.6646239 6.173571,5.4909359 8,7.3172479 9.826429,5.4909359 11.652858,3.6646239 11.994117,4.005883 12.335376,4.347142 10.509064,6.173571 8.6827521,8 10.509064,9.826429 12.335376,11.652858 11.994117,11.994117 11.652858,12.335376 9.826429,10.509064 8,8.6827521 6.173571,10.509064 4.347142,12.335376 Z"
     style="fill:#cccccc;stroke:#f2f2f2;stroke-width:0.0239521;fill-opacity:1" />
</svg>
