<?xml version="1.0" encoding="UTF-8" standalone="no"?>
<svg
   width="22"
   height="22"
   viewBox="0 0 22 22"
   fill="currentColor"
   version="1.1"
   id="svg134"
   sodipodi:docname="info.svg"
   inkscape:version="1.2 (dc2aeda, 2022-05-15)"
   xmlns:inkscape="http://www.inkscape.org/namespaces/inkscape"
   xmlns:sodipodi="http://sodipodi.sourceforge.net/DTD/sodipodi-0.dtd"
   xmlns="http://www.w3.org/2000/svg"
   xmlns:svg="http://www.w3.org/2000/svg">
  <defs
     id="defs138" />
  <sodipodi:namedview
     id="namedview136"
     pagecolor="#ffffff"
     bordercolor="#666666"
     borderopacity="1.0"
     inkscape:showpageshadow="2"
     inkscape:pageopacity="0.0"
     inkscape:pagecheckerboard="0"
     inkscape:deskcolor="#d1d1d1"
     showgrid="false"
     inkscape:zoom="51.5"
     inkscape:cx="8.1067961"
     inkscape:cy="6.6019417"
     inkscape:window-width="1574"
     inkscape:window-height="880"
     inkscape:window-x="0"
     inkscape:window-y="25"
     inkscape:window-maximized="0"
     inkscape:current-layer="svg134" />
  <path
     fill-rule="evenodd"
     clip-rule="evenodd"
     d="M 11.980193,1.0480997 A 9.8597672,9.7150741 0 0 1 18.05845,3.9326195 10.236758,10.086533 0 0 1 18.725434,17.347994 9.9322655,9.7865085 0 0 1 6.2847279,19.83391 10.14976,10.000812 0 0 1 1.7608347,14.833504 10.323756,10.172254 0 0 1 1.4273426,8.1043867 10.14976,10.000812 0 0 1 5.4437478,2.6896615 9.8597672,9.7150741 0 0 1 11.980193,1.0480997 Z M 12.664577,19.405304 A 8.5402983,8.4149686 0 0 0 17.608961,16.447921 8.8012922,8.6721324 0 0 0 17.028974,4.9327007 8.4388007,8.3149605 0 0 0 6.2557286,3.875472 8.7867925,8.6578455 0 0 0 6.9807115,18.576665 8.4243011,8.3006736 0 0 0 12.664577,19.405304 Z M 10.250384,8.1472473 h 1.812457 V 6.7185599 h -1.812457 z m 1.812457,1.4286874 V 15.290684 H 10.250384 V 9.5759347 Z"
     id="path132"
     style="stroke-width:1.43929;fill:#d38d5f" />
</svg>
