<?xml version="1.0" encoding="UTF-8" standalone="no"?>
<svg
   width="22"
   height="22"
   viewBox="0 0 22 22"
   fill="currentColor"
   version="1.1"
   id="svg4"
   sodipodi:docname="subflow.svg"
   inkscape:version="1.2 (dc2aeda, 2022-05-15)"
   xmlns:inkscape="http://www.inkscape.org/namespaces/inkscape"
   xmlns:sodipodi="http://sodipodi.sourceforge.net/DTD/sodipodi-0.dtd"
   xmlns="http://www.w3.org/2000/svg"
   xmlns:svg="http://www.w3.org/2000/svg">
  <defs
     id="defs8" />
  <sodipodi:namedview
     id="namedview6"
     pagecolor="#ffffff"
     bordercolor="#000000"
     borderopacity="0.25"
     inkscape:showpageshadow="2"
     inkscape:pageopacity="0.0"
     inkscape:pagecheckerboard="0"
     inkscape:deskcolor="#d1d1d1"
     showgrid="false"
     inkscape:zoom="51.0625"
     inkscape:cx="8"
     inkscape:cy="3.2998776"
     inkscape:window-width="1390"
     inkscape:window-height="967"
     inkscape:window-x="0"
     inkscape:window-y="25"
     inkscape:window-maximized="0"
     inkscape:current-layer="svg4" />
  <path
     d="m 19.730768,14.785715 h -2.66 L 11.943077,7.6428572 h 1.633846 L 14.346154,6.9285715 V 1.2142857 L 13.576923,0.5 H 7.4230768 L 6.6538461,1.2142857 V 6.9285715 L 7.4230768,7.6428572 H 9.0569232 L 3.9292307,14.785715 h -2.66 L 0.5,15.5 v 4.285715 L 1.2692307,20.5 H 5.8846154 L 6.6538461,19.785715 V 15.5 L 5.8846154,14.785715 H 5.78 L 10.5,8.2142857 15.22,14.785715 H 15.115389 L 14.346158,15.5 v 4.285715 L 15.115388,20.5 h 4.615386 L 20.5,19.785715 V 15.5 Z M 8.1923077,6.2142857 V 1.9285715 H 12.807693 V 6.2142857 Z M 5.1153846,16.214285 v 2.857143 h -3.076923 v -2.857143 z m 13.8461544,2.857143 h -3.076923 v -2.857143 h 3.076923 z"
     id="path2"
     style="fill:#4790ff;stroke-width:1.4825;fill-opacity:1" />
</svg>
