<?xml version="1.0" encoding="UTF-8" standalone="no"?>
<svg
   viewBox="0 0 20 20"
   version="1.1"
   id="svg953"
   sodipodi:docname="typescript.svg"
   width="20"
   height="20"
   inkscape:version="1.2 (dc2aeda, 2022-05-15)"
   xmlns:inkscape="http://www.inkscape.org/namespaces/inkscape"
   xmlns:sodipodi="http://sodipodi.sourceforge.net/DTD/sodipodi-0.dtd"
   xmlns="http://www.w3.org/2000/svg"
   xmlns:svg="http://www.w3.org/2000/svg"
   xmlns:rdf="http://www.w3.org/1999/02/22-rdf-syntax-ns#"
   xmlns:cc="http://creativecommons.org/ns#"
   xmlns:dc="http://purl.org/dc/elements/1.1/">
  <metadata
     id="metadata959">
    <rdf:RDF>
      <cc:Work
         rdf:about="">
        <dc:format>image/svg+xml</dc:format>
        <dc:type
           rdf:resource="http://purl.org/dc/dcmitype/StillImage" />
        <dc:title>file_type_typescript</dc:title>
      </cc:Work>
    </rdf:RDF>
  </metadata>
  <defs
     id="defs957" />
  <sodipodi:namedview
     inkscape:document-rotation="0"
     pagecolor="#ffffff"
     bordercolor="#666666"
     borderopacity="1"
     objecttolerance="10"
     gridtolerance="10"
     guidetolerance="10"
     inkscape:pageopacity="0"
     inkscape:pageshadow="2"
     inkscape:window-width="1628"
     inkscape:window-height="928"
     id="namedview955"
     showgrid="false"
     inkscape:zoom="18.539456"
     inkscape:cx="5.6366271"
     inkscape:cy="16.019888"
     inkscape:window-x="0"
     inkscape:window-y="25"
     inkscape:window-maximized="0"
     inkscape:current-layer="svg953"
     inkscape:showpageshadow="2"
     inkscape:pagecheckerboard="0"
     inkscape:deskcolor="#d1d1d1" />
  <title
     id="title949">file_type_typescript</title>
  <path
     d="m 16.056056,3.6167844 a 3.1928771,3.5009399 0 0 1 1.604376,1.0137215 4.2242109,4.6317815 0 0 1 0.614904,0.9045158 c 0.0079,0.035602 -1.107114,0.8570334 -1.783364,1.3152259 -0.02453,0.0182 -0.121969,-0.098131 -0.232392,-0.2769734 A 1.4535386,1.5937824 0 0 0 15.054311,5.7819224 C 14.277022,5.7233667 13.77615,6.1696855 13.779759,6.9159291 a 0.93823243,1.0287573 0 0 0 0.110423,0.5270405 c 0.171047,0.3877631 0.488602,0.6204203 1.486015,1.0944403 1.836049,0.8665289 2.624165,1.4378855 3.110602,2.2498121 a 3.7226174,4.081792 0 0 1 0.300234,3.428927 3.4382609,3.7699995 0 0 1 -2.837792,2.227655 7.8667179,8.6257336 0 0 1 -1.95441,-0.02216 4.7135352,5.168318 0 0 1 -2.609729,-1.490906 4.5309408,4.9681061 0 0 1 -0.668311,-1.084943 1.9161593,2.1010387 0 0 1 0.236002,-0.164602 c 0.114031,-0.07122 0.545618,-0.343446 0.952666,-0.602218 l 0.739039,-0.474811 0.154448,0.246902 a 3.443313,3.775539 0 0 0 0.974318,1.022426 2.3816669,2.6114606 0 0 0 2.495698,-0.138486 1.1150532,1.2226384 0 0 0 0.144343,-1.562129 C 16.214112,11.860296 15.807062,11.597567 14.65015,11.047576 A 6.3511117,6.963895 0 0 1 12.233119,9.4213486 3.3826887,3.7090654 0 0 1 11.528723,8.0151163 5.1357398,5.6312587 0 0 1 11.483973,6.2203316 3.1264791,3.4281357 0 0 1 14.11391,3.5503107 a 6.4954551,7.1221654 0 0 1 1.942142,0.066474 z m -6.021287,1.1735746 0.0079,1.1506249 H 6.7011561 V 16.345677 H 4.3447493 V 5.9433582 H 1.0031985 V 4.8133081 a 10.093937,11.067845 0 0 1 0.028868,-1.1601216 c 0.01227,-0.018201 2.0439033,-0.026906 4.5071241,-0.022158 l 4.4825864,0.013452 z"
     style="fill:#3b99d8;fill-opacity:1;stroke-width:0.755733"
     id="path951" />
</svg>
