<?xml version="1.0" encoding="UTF-8" standalone="no"?>
<svg
   width="22"
   height="22"
   viewBox="0 0 22 22"
   fill="currentColor"
   version="1.1"
   id="svg134"
   sodipodi:docname="value.svg"
   inkscape:version="1.2 (dc2aeda, 2022-05-15)"
   xmlns:inkscape="http://www.inkscape.org/namespaces/inkscape"
   xmlns:sodipodi="http://sodipodi.sourceforge.net/DTD/sodipodi-0.dtd"
   xmlns="http://www.w3.org/2000/svg"
   xmlns:svg="http://www.w3.org/2000/svg">
  <defs
     id="defs138" />
  <sodipodi:namedview
     id="namedview136"
     pagecolor="#ffffff"
     bordercolor="#666666"
     borderopacity="1.0"
     inkscape:showpageshadow="2"
     inkscape:pageopacity="0.0"
     inkscape:pagecheckerboard="0"
     inkscape:deskcolor="#d1d1d1"
     showgrid="false"
     inkscape:zoom="51.375"
     inkscape:cx="8.0583942"
     inkscape:cy="8.0681265"
     inkscape:window-width="1427"
     inkscape:window-height="787"
     inkscape:window-x="0"
     inkscape:window-y="25"
     inkscape:window-maximized="0"
     inkscape:current-layer="svg134" />
  <path
     fill-rule="evenodd"
     clip-rule="evenodd"
     d="M 2,1.5 0.5,3.0454545 V 16.954545 L 2,18.5 h 18 l 1.5,-1.545455 V 3.0454545 L 20,1.5 Z M 2,16.954545 V 3.0454545 H 20 V 16.954545 Z M 7.034,12.21 H 8 V 9.5672731 C 8,8.3123636 7.5275,7.6818182 6.584,7.6818182 c -0.2025,0 -0.4275,0.037091 -0.675,0.1128182 A 2.166,2.2316364 0 0 0 5.327,8.0527273 V 9.0804545 C 5.6825,8.7667273 6.0575,8.6106364 6.452,8.6106364 c 0.3915,0 0.588,0.2410909 0.588,0.7248182 L 6.14,9.4946361 C 5.381,9.6275454 5,10.122091 5,10.979819 5,11.386273 5.0915,11.710818 5.2745,11.955 a 0.915,0.94272731 0 0 0 0.7605,0.363182 c 0.435,0 0.7635,-0.247273 0.9855,-0.741818 H 7.034 Z M 7.04,10.115909 v 0.298273 A 1.125,1.1590909 0 0 1 6.86,11.088 a 0.552,0.56872727 0 0 1 -0.4695,0.262727 0.414,0.42654545 0 0 1 -0.33,-0.146818 0.57,0.58727273 0 0 1 -0.12,-0.383273 c 0,-0.343091 0.165,-0.542454 0.498,-0.601181 l 0.6,-0.103546 z m 3.36,1.624273 h -0.0105 v 0.479091 H 9.5 V 6.1363636 h 0.8895 v 2.5917273 h 0.012 C 10.6205,8.249 10.934,8.0094545 11.339,8.0094545 c 0.372,0 0.66,0.1823637 0.8595,0.5455455 0.201,0.3647273 0.3015,0.8608185 0.3015,1.492909 0,0.684636 -0.117,1.233273 -0.3525,1.649 -0.2325,0.414182 -0.5475,0.621273 -0.9405,0.621273 -0.3555,0 -0.624,-0.193182 -0.8055,-0.578 z m -0.024,-1.732455 v 0.420364 a 1.17,1.2054545 0 0 0 0.1605,0.658364 c 0.1065,0.174636 0.2445,0.261181 0.411,0.261181 0.2025,0 0.36,-0.111272 0.471,-0.333818 C 11.531,10.789727 11.588,10.472909 11.588,10.063364 11.588,9.7233639 11.5355,9.4606361 11.432,9.269 11.3315,9.0773636 11.186,8.98 10.997,8.98 c -0.18,0 -0.3285,0.095818 -0.447,0.2859092 a 1.3305,1.3708182 0 0 0 -0.174,0.7418178 z m 5.517,2.310455 c 0.4815,0 0.8505,-0.08964 1.107,-0.267364 v -1.097273 a 1.35,1.3909091 0 0 1 -0.828,0.31991 0.9285,0.95663639 0 0 1 -0.75,-0.332273 C 15.242,10.717091 15.1505,10.408 15.1505,10.017 c 0,-0.4018185 0.0945,-0.7170908 0.2835,-0.9458182 a 0.966,0.99527269 0 0 1 0.774,-0.3446363 c 0.291,0 0.555,0.1066363 0.792,0.319909 V 7.8889091 C 16.8065,7.7498182 16.493,7.6818182 16.061,7.6818182 15.4355,7.6818182 14.9345,7.8981818 14.5595,8.334 14.186,8.7667273 14,9.3570908 14,10.108182 c 0,0.649091 0.174,1.180727 0.5235,1.591818 0.348,0.412636 0.8055,0.618182 1.3695,0.618182 z"
     id="path132"
     style="fill:#ff7f2a;stroke-width:1.52255" />
</svg>
