<?xml version="1.0" encoding="UTF-8" standalone="no"?>
<svg
   height="22"
   preserveAspectRatio="xMidYMid"
   viewBox="0 0 22 22"
   width="22"
   version="1.1"
   id="svg134"
   sodipodi:docname="websocket.svg"
   inkscape:version="1.2 (dc2aeda, 2022-05-15)"
   xmlns:inkscape="http://www.inkscape.org/namespaces/inkscape"
   xmlns:sodipodi="http://sodipodi.sourceforge.net/DTD/sodipodi-0.dtd"
   xmlns="http://www.w3.org/2000/svg"
   xmlns:svg="http://www.w3.org/2000/svg">
  <defs
     id="defs138" />
  <sodipodi:namedview
     id="namedview136"
     pagecolor="#ffffff"
     bordercolor="#666666"
     borderopacity="1.0"
     inkscape:showpageshadow="2"
     inkscape:pageopacity="0.0"
     inkscape:pagecheckerboard="0"
     inkscape:deskcolor="#d1d1d1"
     showgrid="false"
     inkscape:zoom="4.2694301"
     inkscape:cx="8.4320388"
     inkscape:cy="60.898058"
     inkscape:window-width="1469"
     inkscape:window-height="866"
     inkscape:window-x="0"
     inkscape:window-y="25"
     inkscape:window-maximized="0"
     inkscape:current-layer="svg134" />
  <path
     d="m 16.286112,15.047141 h 2.606944 V 8.6918376 L 15.955945,5.7097337 14.112513,7.5814055 16.286112,9.788302 Z m 2.613822,1.326931 h -3.79692 -5.2964301 l -2.1736,-2.206896 0.9217164,-0.935836 1.7952837,1.822785 h 3.693744 l -3.638716,-3.701441 0.928594,-0.942819 3.638716,3.694456 V 10.353994 L 13.183917,8.5381929 14.098755,7.6093409 9.5795936,3 H 5.1223387 0.5 l 2.6000655,2.6398952 v 0.00698 H 3.1138225 8.492794 L 10.398133,7.5814055 7.6123485,10.409865 5.7070095,8.4753383 V 6.9738106 H 3.1000655 V 9.5718027 L 7.6123485,14.153208 5.7757943,16.017896 8.7129056,19 H 13.170161 21.5 Z"
     fill="#231f20"
     id="path132"
     style="fill:#67d187;fill-opacity:1;stroke-width:0.0826571" />
</svg>
