<?xml version="1.0" encoding="UTF-8" standalone="no"?>
<svg
   xmlns:dc="http://purl.org/dc/elements/1.1/"
   xmlns:cc="http://creativecommons.org/ns#"
   xmlns:rdf="http://www.w3.org/1999/02/22-rdf-syntax-ns#"
   xmlns:svg="http://www.w3.org/2000/svg"
   xmlns="http://www.w3.org/2000/svg"
   xmlns:sodipodi="http://sodipodi.sourceforge.net/DTD/sodipodi-0.dtd"
   xmlns:inkscape="http://www.inkscape.org/namespaces/inkscape"
   inkscape:version="1.0 (4035a4f, 2020-05-01)"
   sodipodi:docname="zoom-out.svg"
   id="svg2024"
   version="1.1"
   width="24"
   viewBox="0 0 24 24"
   height="24">
  <metadata
     id="metadata2030">
    <rdf:RDF>
      <cc:Work
         rdf:about="">
        <dc:format>image/svg+xml</dc:format>
        <dc:type
           rdf:resource="http://purl.org/dc/dcmitype/StillImage" />
        <dc:title></dc:title>
      </cc:Work>
    </rdf:RDF>
  </metadata>
  <defs
     id="defs2028" />
  <sodipodi:namedview
     inkscape:current-layer="svg2024"
     inkscape:window-maximized="0"
     inkscape:window-y="23"
     inkscape:window-x="0"
     inkscape:cy="12"
     inkscape:cx="12"
     inkscape:zoom="35"
     showgrid="false"
     id="namedview2026"
     inkscape:window-height="781"
     inkscape:window-width="1294"
     inkscape:pageshadow="2"
     inkscape:pageopacity="0"
     guidetolerance="10"
     gridtolerance="10"
     objecttolerance="10"
     borderopacity="1"
     bordercolor="#666666"
     pagecolor="#ffffff" />
  <path
     id="path2020"
     fill="none"
     d="M0 0h24v24H0V0z" />
  <path
     id="path2022"
     d="M15.5 14h-.79l-.28-.27C15.41 12.59 16 11.11 16 9.5 16 5.91 13.09 3 9.5 3S3 5.91 3 9.5 5.91 16 9.5 16c1.61 0 3.09-.59 4.23-1.57l.27.28v.79l5 4.99L20.49 19l-4.99-5zm-6 0C7.01 14 5 11.99 5 9.5S7.01 5 9.5 5 14 7.01 14 9.5 11.99 14 9.5 14zM7 9h5v1H7z" />
  <path
     id="path2593"
     d="m 16.507011,17.97844 -2.492725,-2.492847 v -0.401014 -0.401013 l -0.141289,-0.139165 -0.14129,-0.139164 -0.194425,0.158064 c -0.485378,0.394604 -1.298864,0.849335 -1.880139,1.05098 C 9.3132909,16.427365 6.7663203,15.865777 4.9895443,14.144124 4.4382922,13.609975 4.0428001,13.065788 3.6873368,12.352321 2.7958706,10.56302 2.7955685,8.4429446 3.6865238,6.6476786 4.017672,5.9804183 4.3345229,5.5296974 4.8414143,5.0048455 5.3862732,4.4406807 5.9264611,4.0466619 6.6476786,3.6873368 8.8437011,2.5932341 11.469889,2.8552497 13.45518,4.3665237 c 0.320249,0.2437848 0.810905,0.7252238 1.082379,1.0620477 0.984885,1.2219649 1.506634,2.7870837 1.438214,4.3142857 -0.06143,1.3712929 -0.488041,2.5606809 -1.31055,3.6538499 l -0.255491,0.339564 0.136917,0.139007 0.136917,0.139008 h 0.401135 0.401136 l 2.492868,2.49299 2.492869,2.492991 -0.735919,0.73551 -0.735918,0.735511 z m -6.148703,-4.047712 c 0.908776,-0.178198 1.670055,-0.584688 2.328893,-1.243527 0.66183,-0.661829 1.062107,-1.413713 1.248007,-2.344267 0.08984,-0.4497103 0.08984,-1.2361577 0,-1.6858683 -0.1859,-0.9305537 -0.586177,-1.6824374 -1.248007,-2.3442671 -0.661325,-0.6613258 -1.41259,-1.0621409 -2.33635,-1.2464918 -0.4618136,-0.092162 -1.2398884,-0.092162 -1.7017016,0 -0.9237608,0.1843509 -1.6750251,0.585166 -2.3363508,1.2464918 -0.6613258,0.6613257 -1.0621409,1.41259 -1.2464918,2.3363508 -0.091407,0.458032 -0.092107,1.2403086 -0.00151,1.6937846 0.1858997,0.930554 0.5861764,1.682438 1.2480064,2.344267 0.7555694,0.75557 1.6444523,1.177703 2.75863,1.310081 0.2458188,0.02921 0.9965158,-0.0096 1.2868798,-0.06655 z"
     style="fill:#424242;stroke:#f2f2f2;stroke-width:0.0285714" />
  <path
     id="path2595"
     d="M 7.0142857,9.5 V 9.0142857 H 9.5 11.985714 V 9.5 9.9857143 H 9.5 7.0142857 Z"
     style="fill:#c5c5c5;stroke:#f2f2f2;stroke-width:0.0285714;fill-opacity:1" />
  <path
     id="path2615"
     d="M 16.521293,17.935579 14.042857,15.45702 v -0.401012 -0.401013 l -0.143648,-0.141488 c -0.166438,-0.163936 -0.131492,-0.171735 -0.500475,0.111695 -0.43251,0.332228 -1.091199,0.70005 -1.641591,0.916691 C 11.421341,15.674069 10.853021,15.818942 10.4,15.887849 9.9355554,15.958493 9.0703291,15.959632 8.6142857,15.8902 7.4831017,15.717977 6.4775631,15.292918 5.5726925,14.604467 5.2806692,14.382287 4.7164294,13.835561 4.4918184,13.557143 3.7646723,12.655804 3.2712441,11.509337 3.0961245,10.314286 3.0400797,9.9318246 3.0476023,9.0169589 3.1101031,8.6142857 3.2517588,7.7016411 3.5697765,6.8311243 4.0361419,6.0794194 4.4798539,5.3642278 5.1897499,4.6343329 5.9098731,4.152902 7.038072,3.3986565 8.4523249,2.9912795 9.7315763,3.0520568 c 0.9194407,0.043683 1.7268727,0.2462802 2.5398527,0.6372894 0.675379,0.3248294 1.163874,0.6619794 1.668408,1.151505 0.596965,0.5792077 0.988375,1.1120165 1.334278,1.8162917 0.319447,0.65041 0.508151,1.2496694 0.616294,1.9571428 0.06037,0.3949689 0.06768,1.25058 0.01416,1.6571433 -0.155875,1.183968 -0.563305,2.160583 -1.336364,3.203284 -0.100369,0.135378 -0.18249,0.254857 -0.18249,0.26551 0,0.01065 0.05962,0.0831 0.132481,0.161001 l 0.132482,0.141633 h 0.403294 0.403295 l 2.478586,2.478709 2.478587,2.47871 -0.707355,0.70693 -0.707356,0.706931 z M 9.8285714,14.013017 c 1.1432036,-0.07724 2.0554666,-0.49359 2.8731616,-1.311284 0.802311,-0.802312 1.239641,-1.746719 1.311647,-2.8324827 0.09167,-1.3823126 -0.320173,-2.5485232 -1.237856,-3.5052092 -0.688075,-0.7173192 -1.54022,-1.1744563 -2.48981,-1.3356708 -0.3885226,-0.065961 -1.1829054,-0.065961 -1.5714283,0 C 7.7661923,5.1893307 6.9102314,5.6480606 6.2281634,6.3607429 5.580495,7.0374814 5.1807493,7.8213891 5.0279988,8.7142857 c -0.066626,0.3894574 -0.066636,1.183076 -2.02e-5,1.5681063 0.16891,0.976279 0.6223926,1.812845 1.3659463,2.519841 C 6.98623,13.365417 7.690472,13.74134 8.5,13.926451 c 0.509322,0.116464 0.70111,0.12896 1.3285714,0.08657 z"
     style="fill:#c5c5c5;fill-opacity:1;stroke:#f2f2f2;stroke-width:0.0285714" />
</svg>
