<?xml version="1.0" encoding="UTF-8" standalone="no"?>
<svg
   xmlns:dc="http://purl.org/dc/elements/1.1/"
   xmlns:cc="http://creativecommons.org/ns#"
   xmlns:rdf="http://www.w3.org/1999/02/22-rdf-syntax-ns#"
   xmlns:svg="http://www.w3.org/2000/svg"
   xmlns="http://www.w3.org/2000/svg"
   xmlns:sodipodi="http://sodipodi.sourceforge.net/DTD/sodipodi-0.dtd"
   xmlns:inkscape="http://www.inkscape.org/namespaces/inkscape"
   inkscape:version="1.0 (4035a4f, 2020-05-01)"
   sodipodi:docname="javascript.svg"
   id="svg14"
   version="1.1"
   viewBox="0 0 32 32">
  <metadata
     id="metadata20">
    <rdf:RDF>
      <cc:Work
         rdf:about="">
        <dc:format>image/svg+xml</dc:format>
        <dc:type
           rdf:resource="http://purl.org/dc/dcmitype/StillImage" />
      </cc:Work>
    </rdf:RDF>
  </metadata>
  <defs
     id="defs18" />
  <sodipodi:namedview
     inkscape:current-layer="svg14"
     inkscape:window-maximized="0"
     inkscape:window-y="23"
     inkscape:window-x="0"
     inkscape:cy="16"
     inkscape:cx="8.6579261"
     inkscape:zoom="26.21875"
     showgrid="false"
     id="namedview16"
     inkscape:window-height="780"
     inkscape:window-width="1236"
     inkscape:pageshadow="2"
     inkscape:pageopacity="0"
     guidetolerance="10"
     gridtolerance="10"
     objecttolerance="10"
     borderopacity="1"
     bordercolor="#666666"
     pagecolor="#ffffff" />
  <title
     id="title10">file_type_js</title>
  <path
     id="path12"
     style="fill:#f5de19"
     d="M18.774,19.7a3.727,3.727,0,0,0,3.376,2.078c1.418,0,2.324-.709,2.324-1.688,0-1.173-.931-1.589-2.491-2.272l-.856-.367c-2.469-1.052-4.11-2.37-4.11-5.156,0-2.567,1.956-4.52,5.012-4.52A5.058,5.058,0,0,1,26.9,10.52l-2.665,1.711a2.327,2.327,0,0,0-2.2-1.467,1.489,1.489,0,0,0-1.638,1.467c0,1.027.636,1.442,2.1,2.078l.856.366c2.908,1.247,4.549,2.518,4.549,5.376,0,3.081-2.42,4.769-5.671,4.769a6.575,6.575,0,0,1-6.236-3.5ZM6.686,20c.538.954,1.027,1.76,2.2,1.76,1.124,0,1.834-.44,1.834-2.15V7.975h3.422V19.658c0,3.543-2.078,5.156-5.11,5.156A5.312,5.312,0,0,1,3.9,21.688Z" />
  <path
     id="path845"
     d="M 7.8760429,24.731134 C 6.2226957,24.441567 4.7666521,23.371478 4.0284965,21.90346 L 3.9284129,21.704417 4.128688,21.577449 c 0.5176874,-0.328196 2.5015038,-1.515401 2.5313353,-1.514864 0.018513,3.43e-4 0.145221,0.184185 0.2815738,0.408561 0.2926579,0.481583 0.7239899,0.943905 1.0195315,1.092783 0.4113217,0.207201 0.9885174,0.268443 1.5027501,0.159446 0.6603953,-0.139977 1.0247883,-0.522457 1.2044743,-1.264259 0.05805,-0.239671 0.06508,-0.817701 0.07722,-6.356613 l 0.01336,-6.0929678 h 1.67753 1.67753 l -0.01327,6.3218118 c -0.01454,6.927225 0.0017,6.43331 -0.238837,7.272458 -0.509022,1.775939 -1.862702,2.864097 -3.894266,3.130412 -0.5474784,0.07177 -1.6736694,0.07011 -2.0915711,-0.0031 z"
     style="fill:#00ffff;stroke-width:0.0381406" />
  <path
     id="path847"
     d="m 21.454112,24.805286 c -1.39294,-0.12114 -2.511768,-0.525734 -3.535879,-1.278653 -0.628826,-0.462309 -1.393072,-1.318079 -1.787446,-2.001508 l -0.113086,-0.195972 1.352155,-0.78615 c 0.743685,-0.432382 1.370453,-0.78615 1.392818,-0.78615 0.02237,0 0.04066,0.01496 0.04066,0.03325 0,0.08822 0.414438,0.651853 0.659179,0.896488 0.462057,0.461857 1.033462,0.795293 1.687163,0.984523 0.267846,0.07754 0.386941,0.08813 0.990965,0.08813 0.612962,0 0.717185,-0.0096 0.972586,-0.08928 0.863786,-0.269603 1.327351,-0.783632 1.365705,-1.514378 0.04413,-0.840691 -0.380701,-1.368365 -1.556408,-1.933207 -0.220262,-0.105819 -0.795233,-0.363218 -1.277712,-0.571995 -1.094507,-0.473614 -1.548166,-0.693951 -2.052707,-0.996975 -1.378869,-0.828142 -2.152863,-1.837038 -2.447082,-3.189753 -0.0851,-0.391239 -0.119203,-1.428037 -0.06024,-1.831266 0.313819,-2.1462253 1.987355,-3.6000507 4.388399,-3.8122696 1.307867,-0.1155971 2.197968,0.024244 3.146603,0.4943544 0.545559,0.2703592 0.994612,0.5996378 1.414796,1.0374311 0.434338,0.4525412 0.8664,1.1020681 0.786343,1.1821251 -0.02012,0.02012 -0.607393,0.402347 -1.305053,0.849394 l -1.268474,0.812814 -0.118931,-0.23362 c -0.155546,-0.305544 -0.58057,-0.735199 -0.905628,-0.915494 -0.391275,-0.217023 -0.789286,-0.302359 -1.325186,-0.284128 -0.411238,0.01399 -0.46118,0.02418 -0.68576,0.139861 -0.909836,0.468675 -1.116507,1.672954 -0.417283,2.431522 0.311964,0.338441 0.759747,0.586226 2.127918,1.177508 2.017023,0.871695 2.918322,1.401023 3.663281,2.151422 0.927211,0.933983 1.351058,2.133591 1.281679,3.627521 -0.05867,1.263356 -0.47652,2.220137 -1.322617,3.028493 -0.836645,0.799326 -2.028998,1.296256 -3.43164,1.430184 -0.45121,0.04308 -1.427666,0.07592 -1.659118,0.05579 z"
     style="fill:#42a5f5;stroke-width:0.0381406;fill-opacity:1" />
  <path
     id="path849"
     d="M 7.7176051,24.674507 C 6.1950687,24.354624 4.9277527,23.426491 4.1353652,22.051012 l -0.183468,-0.318477 0.093181,-0.07042 c 0.1303073,-0.09848 2.5674142,-1.561995 2.6010999,-1.561995 0.015135,0 0.1425601,0.175028 0.2831664,0.388951 0.2936364,0.446748 0.7134852,0.906668 0.9590408,1.050573 0.2713169,0.159002 0.623889,0.238665 1.0562918,0.238665 0.8108895,0 1.3061289,-0.26238 1.5721679,-0.832942 0.22372,-0.479803 0.208966,-0.06317 0.239283,-6.757047 0.01534,-3.387842 0.0301,-6.1640043 0.03279,-6.1692487 0.0027,-0.00524 0.7472,-0.00954 1.654471,-0.00954 l 1.649583,-4.8e-6 -0.0099,5.6924955 c -0.0054,3.130873 -0.02609,6.061507 -0.04593,6.51252 -0.03216,0.731361 -0.04838,0.863324 -0.149934,1.220501 -0.264627,0.930674 -0.617116,1.541671 -1.208616,2.094991 -0.662319,0.619567 -1.541764,1.009945 -2.628568,1.1668 -0.5825086,0.08407 -1.8853976,0.0716 -2.3324552,-0.02233 z"
     style="fill:#42a5f5;fill-opacity:1;stroke-width:0.0381406" />
</svg>
