<?xml version="1.0" encoding="UTF-8" standalone="no"?>
<svg
   width="16"
   height="16"
   viewBox="0 0 16 16"
   fill="currentColor"
   version="1.1"
   id="svg67408"
   sodipodi:docname="auth.svg"
   inkscape:version="1.2 (dc2aeda, 2022-05-15)"
   xmlns:inkscape="http://www.inkscape.org/namespaces/inkscape"
   xmlns:sodipodi="http://sodipodi.sourceforge.net/DTD/sodipodi-0.dtd"
   xmlns="http://www.w3.org/2000/svg"
   xmlns:svg="http://www.w3.org/2000/svg">
  <defs
     id="defs67412" />
  <sodipodi:namedview
     id="namedview67410"
     pagecolor="#ffffff"
     bordercolor="#666666"
     borderopacity="1.0"
     inkscape:showpageshadow="2"
     inkscape:pageopacity="0.0"
     inkscape:pagecheckerboard="0"
     inkscape:deskcolor="#d1d1d1"
     showgrid="false"
     inkscape:zoom="51.375"
     inkscape:cx="8.0097324"
     inkscape:cy="8"
     inkscape:window-width="1920"
     inkscape:window-height="972"
     inkscape:window-x="0"
     inkscape:window-y="25"
     inkscape:window-maximized="1"
     inkscape:current-layer="svg67408" />
  <path
     fill-rule="evenodd"
     clip-rule="evenodd"
     d="M11.351 1.091a4.528 4.528 0 0 1 3.44 3.16c.215.724.247 1.49.093 2.23a4.583 4.583 0 0 1-4.437 3.6c-.438 0-.874-.063-1.293-.19l-.8.938-.379.175H7v1.5l-.5.5H5v1.5l-.5.5h-3l-.5-.5v-2.307l.146-.353L6.12 6.87a4.464 4.464 0 0 1-.2-1.405 4.528 4.528 0 0 1 5.431-4.375zm1.318 7.2a3.568 3.568 0 0 0 1.239-2.005l.004.005A3.543 3.543 0 0 0 9.72 2.08a3.576 3.576 0 0 0-2.8 3.4c-.01.456.07.908.239 1.33l-.11.543L2 12.404v1.6h2v-1.5l.5-.5H6v-1.5l.5-.5h1.245l.876-1.016.561-.14a3.47 3.47 0 0 0 1.269.238 3.568 3.568 0 0 0 2.218-.795zm-.838-2.732a1 1 0 1 0-1.662-1.11 1 1 0 0 0 1.662 1.11z"
     id="path67406"
     style="fill:#c5c5c5;fill-opacity:1" />
</svg>
