<?xml version="1.0" encoding="UTF-8" standalone="no"?>
<svg
   xmlns:dc="http://purl.org/dc/elements/1.1/"
   xmlns:cc="http://creativecommons.org/ns#"
   xmlns:rdf="http://www.w3.org/1999/02/22-rdf-syntax-ns#"
   xmlns:svg="http://www.w3.org/2000/svg"
   xmlns="http://www.w3.org/2000/svg"
   xmlns:sodipodi="http://sodipodi.sourceforge.net/DTD/sodipodi-0.dtd"
   xmlns:inkscape="http://www.inkscape.org/namespaces/inkscape"
   inkscape:version="1.0 (4035a4f, 2020-05-01)"
   sodipodi:docname="zoom-out.svg"
   id="svg2024"
   version="1.1"
   width="24"
   viewBox="0 0 24 24"
   height="24">
  <metadata
     id="metadata2030">
    <rdf:RDF>
      <cc:Work
         rdf:about="">
        <dc:format>image/svg+xml</dc:format>
        <dc:type
           rdf:resource="http://purl.org/dc/dcmitype/StillImage" />
        <dc:title></dc:title>
      </cc:Work>
    </rdf:RDF>
  </metadata>
  <defs
     id="defs2028" />
  <sodipodi:namedview
     inkscape:current-layer="svg2024"
     inkscape:window-maximized="0"
     inkscape:window-y="23"
     inkscape:window-x="0"
     inkscape:cy="12"
     inkscape:cx="12"
     inkscape:zoom="35"
     showgrid="false"
     id="namedview2026"
     inkscape:window-height="781"
     inkscape:window-width="1294"
     inkscape:pageshadow="2"
     inkscape:pageopacity="0"
     guidetolerance="10"
     gridtolerance="10"
     objecttolerance="10"
     borderopacity="1"
     bordercolor="#666666"
     pagecolor="#ffffff" />
  <path
     id="path2020"
     fill="none"
     d="M0 0h24v24H0V0z" />
  <path
     id="path2022"
     d="M15.5 14h-.79l-.28-.27C15.41 12.59 16 11.11 16 9.5 16 5.91 13.09 3 9.5 3S3 5.91 3 9.5 5.91 16 9.5 16c1.61 0 3.09-.59 4.23-1.57l.27.28v.79l5 4.99L20.49 19l-4.99-5zm-6 0C7.01 14 5 11.99 5 9.5S7.01 5 9.5 5 14 7.01 14 9.5 11.99 14 9.5 14zM7 9h5v1H7z" />
  <path
     id="path2593"
     d="m 16.507011,17.97844 -2.492725,-2.492847 v -0.401014 -0.401013 l -0.141289,-0.139165 -0.14129,-0.139164 -0.194425,0.158064 c -0.485378,0.394604 -1.298864,0.849335 -1.880139,1.05098 C 9.3132909,16.427365 6.7663203,15.865777 4.9895443,14.144124 4.4382922,13.609975 4.0428001,13.065788 3.6873368,12.352321 2.7958706,10.56302 2.7955685,8.4429446 3.6865238,6.6476786 4.017672,5.9804183 4.3345229,5.5296974 4.8414143,5.0048455 5.3862732,4.4406807 5.9264611,4.0466619 6.6476786,3.6873368 8.8437011,2.5932341 11.469889,2.8552497 13.45518,4.3665237 c 0.320249,0.2437848 0.810905,0.7252238 1.082379,1.0620477 0.984885,1.2219649 1.506634,2.7870837 1.438214,4.3142857 -0.06143,1.3712929 -0.488041,2.5606809 -1.31055,3.6538499 l -0.255491,0.339564 0.136917,0.139007 0.136917,0.139008 h 0.401135 0.401136 l 2.492868,2.49299 2.492869,2.492991 -0.735919,0.73551 -0.735918,0.735511 z m -6.148703,-4.047712 c 0.908776,-0.178198 1.670055,-0.584688 2.328893,-1.243527 0.66183,-0.661829 1.062107,-1.413713 1.248007,-2.344267 0.08984,-0.4497103 0.08984,-1.2361577 0,-1.6858683 -0.1859,-0.9305537 -0.586177,-1.6824374 -1.248007,-2.3442671 -0.661325,-0.6613258 -1.41259,-1.0621409 -2.33635,-1.2464918 -0.4618136,-0.092162 -1.2398884,-0.092162 -1.7017016,0 -0.9237608,0.1843509 -1.6750251,0.585166 -2.3363508,1.2464918 -0.6613258,0.6613257 -1.0621409,1.41259 -1.2464918,2.3363508 -0.091407,0.458032 -0.092107,1.2403086 -0.00151,1.6937846 0.1858997,0.930554 0.5861764,1.682438 1.2480064,2.344267 0.7555694,0.75557 1.6444523,1.177703 2.75863,1.310081 0.2458188,0.02921 0.9965158,-0.0096 1.2868798,-0.06655 z"
     style="fill:#424242;stroke:#f2f2f2;stroke-width:0.0285714" />
  <path
     id="path2595"
     d="M 7.0142857,9.5 V 9.0142857 H 9.5 11.985714 V 9.5 9.9857143 H 9.5 7.0142857 Z"
     style="fill:#424242;stroke:#f2f2f2;stroke-width:0.0285714" />
</svg>
