<?xml version="1.0" encoding="UTF-8" standalone="no"?>
<svg
   xmlns:dc="http://purl.org/dc/elements/1.1/"
   xmlns:cc="http://creativecommons.org/ns#"
   xmlns:rdf="http://www.w3.org/1999/02/22-rdf-syntax-ns#"
   xmlns:svg="http://www.w3.org/2000/svg"
   xmlns="http://www.w3.org/2000/svg"
   xmlns:sodipodi="http://sodipodi.sourceforge.net/DTD/sodipodi-0.dtd"
   xmlns:inkscape="http://www.inkscape.org/namespaces/inkscape"
   inkscape:version="1.0 (4035a4f, 2020-05-01)"
   sodipodi:docname="flow.svg"
   id="svg835"
   version="1.1"
   viewBox="0 0 16 16"
   height="16"
   width="16">
  <metadata
     id="metadata841">
    <rdf:RDF>
      <cc:Work
         rdf:about="">
        <dc:format>image/svg+xml</dc:format>
        <dc:type
           rdf:resource="http://purl.org/dc/dcmitype/StillImage" />
        <dc:title></dc:title>
      </cc:Work>
    </rdf:RDF>
  </metadata>
  <defs
     id="defs839" />
  <sodipodi:namedview
     inkscape:current-layer="svg835"
     inkscape:window-maximized="0"
     inkscape:window-y="25"
     inkscape:window-x="0"
     inkscape:cy="12"
     inkscape:cx="12"
     inkscape:zoom="27.833333"
     showgrid="false"
     id="namedview837"
     inkscape:window-height="888"
     inkscape:window-width="1564"
     inkscape:pageshadow="2"
     inkscape:pageopacity="0"
     guidetolerance="10"
     gridtolerance="10"
     objecttolerance="10"
     borderopacity="1"
     bordercolor="#666666"
     pagecolor="#ffffff" />
  <path
     id="path843"
     d="M 3.6789659,0.99903528 C 3.1114644,1.0098723 2.5408729,0.97910239 1.9754108,1.0315909 1.4032744,1.157178 0.95826693,1.7208861 1.006099,2.3107965 0.996304,3.7023756 0.9907933,5.0943419 1.009889,6.4858303 1.014079,7.0190132 1.4483336,7.4898428 1.9472257,7.630141 2.580908,7.67787 3.2177645,7.661301 3.8528044,7.67759 c 0.015246,0.9767942 -8.706e-4,1.9546103 0.037952,2.930726 0.1384343,0.73599 0.7601662,1.360762 1.5047724,1.479097 0.7103118,0.05052 1.4250866,0.02268 2.1371843,0.03121 0.252404,3.3e-5 0.5048066,6.7e-5 0.7572099,10e-5 0.016473,0.619955 -0.0095,1.24246 0.040407,1.860715 0.1261219,0.565365 0.6804145,1.023563 1.2686916,0.982022 1.3524894,0.01177 2.7053894,0.01851 4.0578234,6.99e-4 0.277726,0.0063 0.559664,-0.04999 0.78263,-0.224768 0.339635,-0.243145 0.560597,-0.65587 0.525792,-1.078208 0.0092,-1.398611 0.01645,-2.797667 -0.0048,-4.1961497 C 14.944727,8.9492389 14.535304,8.4886179 14.048853,8.353263 13.444166,8.277748 12.831354,8.318645 12.223236,8.305986 11.254576,8.312446 10.284694,8.290587 9.3168595,8.330384 8.849674,8.4337525 8.4651214,8.8017901 8.336587,9.2617978 8.270629,9.5003509 8.319301,9.7595201 8.300597,10.006573 c -0.00356,0.384924 -0.00711,0.76985 -0.010671,1.154775 -0.9310338,-0.0043 -1.862067,-0.0087 -2.7931004,-0.01307 C 5.1531559,11.028642 4.8578954,10.735061 4.8216709,10.361074 4.7862832,9.4633514 4.8060351,8.5644128 4.8003982,7.6661752 5.419826,7.6541572 6.0420814,7.6928676 6.6595963,7.6354471 7.1917227,7.5383411 7.6173569,7.0434584 7.6660134,6.5130783 c 0,-1.4841831 0,-2.9683663 0,-4.4525495 C 7.5592359,1.578182 7.1851023,1.1400432 6.6925979,1.0346681 5.9565595,0.97232674 5.2157103,1.0101639 4.4776954,0.99878335 4.2114522,0.99874153 3.9452089,0.99896098 3.6789659,0.99903528 Z M 4.3398018,1.9577784 c 0.7231975,0 1.446395,0 2.1695922,0 0.1199702,0.070981 0.1994153,0.1885375 0.1894345,0.3320293 0.039118,1.044817 0.011336,2.0912239 0.019039,3.1366688 -0.014076,0.373068 0.026013,0.7546031 -0.049887,1.1217448 C 6.6119132,6.6619825 6.4985271,6.7244835 6.3722591,6.6960758 4.9616789,6.693328 3.5504616,6.7159419 2.1402853,6.6855797 1.9641673,6.6070773 1.9456247,6.4056397 1.9570509,6.2374755 1.9437483,4.9277072 1.9372946,3.6174155 1.9574454,2.3077574 1.9488097,2.157792 2.0267055,1.9663683 2.2061102,1.9814593 2.9157784,1.9378222 3.6290544,1.9659758 4.3398018,1.9577784 Z M 11.639058,9.275943 c 0.733261,0 1.466522,0 2.199784,0 0.162919,0.09135 0.173898,0.2812261 0.174762,0.4468089 0.02088,1.2665101 0.01302,2.5336301 0.0043,3.8002681 0.0039,0.168621 -0.0051,0.420316 -0.206684,0.468683 -0.854785,0.04142 -1.712074,0.01343 -2.567842,0.02221 -0.593807,0 -1.187614,0 -1.781421,0 -0.11997,-0.07098 -0.1994156,-0.188538 -0.1894346,-0.332029 -0.039117,-1.044817 -0.011338,-2.091224 -0.019041,-3.136669 0.014077,-0.373068 -0.026012,-0.7546046 0.049889,-1.1217448 0.056067,-0.113788 0.1694533,-0.1762878 0.2957214,-0.1475267 0.6799832,0 1.3599662,0 2.0399492,0 z"
     style="fill:#dd55ff;fill-opacity:0.8;stroke:#f2f2f2;stroke-width:0.0228336" />
</svg>
