<?xml version="1.0" encoding="UTF-8" standalone="no"?>
<svg
   xmlns:dc="http://purl.org/dc/elements/1.1/"
   xmlns:cc="http://creativecommons.org/ns#"
   xmlns:rdf="http://www.w3.org/1999/02/22-rdf-syntax-ns#"
   xmlns:svg="http://www.w3.org/2000/svg"
   xmlns="http://www.w3.org/2000/svg"
   xmlns:sodipodi="http://sodipodi.sourceforge.net/DTD/sodipodi-0.dtd"
   xmlns:inkscape="http://www.inkscape.org/namespaces/inkscape"
   inkscape:version="1.0 (4035a4f, 2020-05-01)"
   sodipodi:docname="flow.svg"
   id="svg835"
   version="1.1"
   viewBox="0 0 24 24"
   height="24"
   width="24">
  <metadata
     id="metadata841">
    <rdf:RDF>
      <cc:Work
         rdf:about="">
        <dc:format>image/svg+xml</dc:format>
        <dc:type
           rdf:resource="http://purl.org/dc/dcmitype/StillImage" />
        <dc:title></dc:title>
      </cc:Work>
    </rdf:RDF>
  </metadata>
  <defs
     id="defs839" />
  <sodipodi:namedview
     inkscape:current-layer="svg835"
     inkscape:window-maximized="0"
     inkscape:window-y="25"
     inkscape:window-x="0"
     inkscape:cy="12"
     inkscape:cx="12"
     inkscape:zoom="27.833333"
     showgrid="false"
     id="namedview837"
     inkscape:window-height="888"
     inkscape:window-width="1564"
     inkscape:pageshadow="2"
     inkscape:pageopacity="0"
     guidetolerance="10"
     gridtolerance="10"
     objecttolerance="10"
     borderopacity="1"
     bordercolor="#666666"
     pagecolor="#ffffff" />
  <path
     id="path833"
     d="M1 3a2 2 0 012-2h6.5a2 2 0 012 2v6.5a2 2 0 01-2 2H7v4.063C7 16.355 7.644 17 8.438 17H12.5v-2.5a2 2 0 012-2H21a2 2 0 012 2V21a2 2 0 01-2 2h-6.5a2 2 0 01-2-2v-2.5H8.437A2.938 2.938 0 015.5 15.562V11.5H3a2 2 0 01-2-2V3zm2-.5a.5.5 0 00-.5.5v6.5a.5.5 0 00.5.5h6.5a.5.5 0 00.5-.5V3a.5.5 0 00-.5-.5H3zM14.5 14a.5.5 0 00-.5.5V21a.5.5 0 00.5.5H21a.5.5 0 00.5-.5v-6.5a.5.5 0 00-.5-.5h-6.5z"
     fill-rule="evenodd" />
  <path
     id="path843"
     d="M 5.223475,1.0064091 C 4.330524,1.0234609 3.4327109,0.97504515 2.5429688,1.0576347 1.6427249,1.2552431 0.94251552,2.1422253 1.0177783,3.0704363 c -0.015412,2.1896189 -0.0240832,4.3798471 0.00596,6.5693232 0.00659,0.8389515 0.6898828,1.5797915 1.4748784,1.8005475 0.9970851,0.0751 1.9991647,0.04903 2.998386,0.07466 0.02399,1.536964 -0.00137,3.075536 0.059717,4.611433 0.2178234,1.158063 1.1961047,2.141128 2.3677261,2.327326 1.1176599,0.07949 2.2423422,0.03569 3.3628122,0.04911 0.397152,5.2e-5 0.794302,1.05e-4 1.191453,1.57e-4 0.02592,0.975485 -0.01495,1.954984 0.06358,2.927793 0.19845,0.88959 1.070617,1.610555 1.996258,1.545191 2.128112,0.01852 4.25687,0.02912 6.384894,0.0011 0.436997,0.0099 0.88062,-0.07866 1.231451,-0.353668 0.534408,-0.382584 0.882088,-1.031997 0.827323,-1.696536 0.01455,-2.200684 0.02589,-4.402067 -0.0076,-6.602549 -0.02476,-0.808444 -0.668985,-1.533221 -1.434405,-1.746199 -0.951461,-0.118821 -1.915708,-0.05447 -2.872567,-0.07439 -1.524165,0.01016 -3.050254,-0.02423 -4.573119,0.03839 -0.735106,0.162648 -1.340191,0.741747 -1.542437,1.465559 -0.103784,0.375358 -0.0272,0.783155 -0.05663,1.171887 -0.0056,0.60567 -0.01119,1.211342 -0.01679,1.817013 -1.464961,-0.0068 -2.9299211,-0.01367 -4.3948815,-0.02056 C 7.5430804,16.787773 7.0784946,16.32583 7.021496,15.737369 6.9658143,14.324823 6.9968935,12.910363 6.988024,11.497006 c 0.9746558,-0.01891 1.9537609,0.042 2.925407,-0.04835 0.837289,-0.152794 1.507015,-0.931481 1.583575,-1.7660223 0,-2.3353293 0,-4.6706587 0,-7.005988 C 11.328994,1.9176836 10.740303,1.228282 9.9653583,1.0624766 8.8072182,0.96438381 7.6415084,1.0239197 6.4802583,1.0060127 6.0613304,1.0059469 5.6424025,1.0062922 5.223475,1.0064091 Z m 1.0398107,1.508561 c 1.1379353,0 2.2758705,0 3.4138053,0 0.1887704,0.1116878 0.3137756,0.2966596 0.298071,0.5224408 0.061551,1.6439964 0.017837,3.2904945 0.029957,4.9354789 C 9.9829707,8.559904 10.04605,9.160241 9.9266235,9.7379303 9.8384026,9.9169311 9.6599921,10.015275 9.4613123,9.9705762 7.2417956,9.9662526 5.0212764,10.001835 2.8023952,9.9540607 2.5252774,9.830539 2.4961011,9.5135813 2.5140799,9.2489788 2.4931487,7.1880873 2.4829938,5.1263723 2.5147007,3.0656544 2.5011126,2.8296871 2.62368,2.5284862 2.9059693,2.5522315 4.0226164,2.4835695 5.1449404,2.5278686 6.2632857,2.5149701 Z M 17.748503,14.02994 c 1.153771,0 2.307541,0 3.461312,0 0.25635,0.143737 0.273625,0.442503 0.274984,0.703044 0.03286,1.992826 0.02048,3.98661 0.0068,5.979637 0.0061,0.265322 -0.0081,0.661358 -0.325212,0.737463 -1.344986,0.06517 -2.693911,0.02113 -4.040442,0.03495 -0.934342,0 -1.868685,0 -2.803027,0 -0.18877,-0.111688 -0.313776,-0.29666 -0.298071,-0.522441 -0.06155,-1.643996 -0.01784,-3.290494 -0.02996,-4.935479 0.02215,-0.587014 -0.04093,-1.187353 0.0785,-1.76504 0.08822,-0.179043 0.266631,-0.277385 0.465311,-0.23213 1.069938,0 2.139877,0 3.209815,0 z"
     style="fill:#dd55ff;fill-opacity:0.8;stroke:#f2f2f2;stroke-width:0.0359281" />
</svg>
